# Blender v2.77 (sub 0) OBJ File: ''
# www.blender.org
mtllib Cardboard Box.mtl
o Mesh_0148
v -5.800001 0.355706 11.725623
v -5.800001 0.505236 10.990673
v 5.800001 0.505236 10.990673
v 5.800001 0.355706 11.725623
v 5.580331 0.249976 12.245303
v 5.050001 0.206186 12.460563
v -5.050001 0.206186 12.460563
v -5.580331 0.249976 12.245303
v -5.580331 0.053996 12.205433
v -5.050001 0.010196 12.420693
v 5.050001 0.010196 12.420693
v 5.580331 0.053996 12.205433
v 5.800001 0.159726 11.685742
v 5.800001 0.305606 11.002883
v -5.800001 0.305606 11.002883
v -5.800001 0.159726 11.685742
v 1.865731 2.308383 -5.900001
v 1.865731 2.308383 -6.000000
v 2.990741 2.229742 -6.000000
v 2.990741 2.229742 -5.900001
v 1.660550 2.546193 -5.900001
v 1.660550 2.546193 -6.000000
v 1.476980 2.686223 -5.900001
v 1.476980 2.686223 -6.000000
v 1.260900 2.739793 -5.900001
v 1.260900 2.739793 -6.000000
v -0.084590 2.749413 -5.900001
v -0.084590 2.749413 -6.000000
v -1.430080 2.759033 -5.900001
v -1.430080 2.759033 -6.000000
v -1.717530 2.641722 -5.900001
v -1.717530 2.641722 -6.000000
v -1.928200 2.457532 -5.900001
v -1.928200 2.457532 -6.000000
v -2.045841 2.309132 -5.900001
v -2.045841 2.309132 -6.000000
v -2.217021 2.245132 -5.900001
v -2.217021 2.245132 -6.000000
v -2.926101 2.223362 -5.900001
v -2.926101 2.223362 -6.000000
v -4.268251 3.541283 -6.000000
v -4.268251 3.541283 -5.950000
v -2.966211 2.363992 -5.900001
v -2.966211 2.363992 -6.000000
v -4.272561 1.332952 -6.000001
v -4.272561 1.332952 -5.950001
v -3.160071 2.329932 -5.900001
v -3.160071 2.329932 -6.000000
v 6.000001 0.099998 6.000001
v 6.000001 4.899999 6.000003
v 6.000001 4.900003 -5.999999
v 6.000001 0.100002 -5.900002
v -5.800001 0.199998 6.000001
v 5.800001 0.199998 6.000001
v 3.079571 2.357072 -6.000000
v 3.079571 2.357072 -5.900001
v 4.232441 3.496323 -5.950000
v 4.232441 3.496323 -6.000000
v 5.800001 -0.000002 6.000001
v -5.800001 -0.000002 6.000001
v 3.079571 2.357072 -5.800001
v 4.214781 1.353542 -5.900002
v 4.214781 1.353542 -5.950001
v 5.800001 0.000002 -5.900002
v -5.800001 0.000002 -5.900002
v -5.900002 4.999999 6.000003
v -6.000001 4.899999 6.000003
v -6.000001 4.900003 -5.999999
v -5.900002 5.000003 -5.999999
v 5.900002 5.000003 -5.999999
v 5.900002 4.999999 6.000003
v -6.000001 0.099998 6.000001
v -6.000001 0.100002 -5.900002
v 5.800001 0.200002 -5.800001
v -5.800001 0.200002 -5.800001
v -5.800001 4.800003 -5.799999
v 5.800001 4.800003 -5.799999
v 5.800001 4.799999 6.000003
v -5.500001 1.699998 6.000002
v -5.300001 1.733328 6.000002
v -5.800001 4.799999 6.000003
v -1.966671 4.699999 5.950003
v -1.933330 4.499999 5.950003
v -5.900002 4.900003 -6.099999
v -5.900002 0.100002 -6.000001
v 5.900002 4.900003 -6.099999
v 5.900002 0.100002 -6.000001
v -5.385051 0.335972 -6.000001
v -5.570301 4.718583 -5.999999
v 5.385301 4.635573 -5.999999
v 5.350001 0.350002 -6.000001
v -5.477671 2.527283 -6.000000
v 2.092951 1.348392 -5.912501
v -0.028890 1.343242 -5.925002
v -2.150721 1.338102 -5.937501
v -0.017520 0.342992 -6.000001
v -2.143080 3.530043 -6.000000
v -0.017910 3.518803 -6.000000
v 2.107260 3.507563 -6.000000
v -0.092500 4.677083 -5.999999
v 5.367651 2.492793 -6.000000
v 5.800001 4.799999 6.000003
v 5.800001 0.199999 3.158721
v 5.512772 2.157519 4.367823
v 5.438721 1.476179 3.946981
v 5.346241 0.625389 3.421481
v -5.100001 0.625389 3.421481
v -5.800001 0.199999 3.158721
v -5.800001 4.799999 6.000003
v -5.169161 2.157519 4.367823
v -5.369161 2.157519 4.367823
v -5.074531 1.476179 3.946981
v -5.387271 1.465719 3.940521
v -1.933330 4.499999 5.950003
v 5.800001 0.200000 2.363571
v 5.523481 2.255989 3.988893
v 5.428511 1.382249 3.298171
v 5.346241 0.625390 2.699861
v -5.111981 0.625390 2.699861
v -5.800001 0.200000 2.363571
v -5.114481 1.382249 3.298171
v -5.185221 2.255989 3.988893
v -5.385221 2.255989 3.988893
v -5.414481 1.382249 3.298171
vt 1.0000 -1.0000
vt 1.0000 -1.0000
vt 1.0000 -1.0000
vt 1.0000 -1.0000
vt 1.0000 -1.0000
vt 1.0000 -1.0000
vt 1.0000 -1.0000
vt 1.0000 -1.0000
vt 1.0000 -1.0000
vt 1.0000 -1.0000
vt 1.0000 -1.0000
vt 1.0000 -1.0000
vt 1.0000 -1.0000
vt 1.0000 -1.0000
vt 1.0000 -1.0000
vt 1.0000 -1.0000
vt 1.0000 -1.0000
vt 1.0000 -1.0000
vt 1.0000 -1.0000
vt 1.0000 -1.0000
vt 1.0000 -1.0000
vt 1.0000 -1.0000
vt 1.0000 -1.0000
vt -0.2417 -1.1896
vt 0.2417 -1.1583
vt -0.2417 -1.1583
vt 0.2417 -1.1896
vt 0.2325 -1.2117
vt 0.2104 -1.2208
vt -0.2104 -1.2208
vt -0.2325 -1.2117
vt 0.2675 0.1140
vt 0.7104 0.1250
vt 0.2896 0.1250
vt 0.7325 0.1140
vt 0.7417 0.0875
vt 0.7417 0.0500
vt 0.2583 0.0500
vt 0.2583 0.0875
vt 0.4213 -0.2384
vt 0.3754 -0.2500
vt 0.4223 -0.2500
vt 0.3744 -0.2384
vt 0.4299 -0.2384
vt 0.4308 -0.2500
vt 0.4375 -0.2384
vt 0.4385 -0.2500
vt 0.4465 -0.2384
vt 0.4475 -0.2500
vt 0.5026 -0.2384
vt 0.5035 -0.2500
vt 0.5586 -0.2384
vt 0.5596 -0.2500
vt 0.5706 -0.2384
vt 0.5716 -0.2500
vt 0.5794 -0.2384
vt 0.5803 -0.2500
vt 0.5843 -0.2384
vt 0.5852 -0.2500
vt 0.5914 -0.2384
vt 0.5924 -0.2500
vt 0.6210 -0.2384
vt 0.6219 -0.2500
vt 0.6778 -0.8229
vt 0.6236 -0.8792
vt 0.6778 -0.8229
vt 0.6236 -0.8792
vt 0.6809 -0.9286
vt 0.6355 -0.8813
vt 0.6809 -0.9286
vt 0.6355 -0.8813
vt 0.0051 -0.2500
vt 0.2500 -0.7458
vt 0.2500 -0.2500
vt 0.0051 -0.7458
vt 0.2417 -0.9500
vt -0.2417 -0.9500
vt 0.3723 -0.8752
vt 0.3263 -0.8231
vt 0.3723 -0.8752
vt 0.3263 -0.8231
vt 0.9830 -0.3869
vt 1.0084 -0.4958
vt 1.0084 -0.3911
vt 0.9794 -0.4996
vt 0.9981 -0.7466
vt 0.9750 -0.5175
vt 0.9750 -0.7463
vt 0.9981 -0.5178
vt 0.2583 -0.2000
vt 0.7417 -0.2000
vt 0.2736 -0.2512
vt 0.2896 -0.2291
vt 0.2675 -0.2291
vt 0.2957 -0.2512
vt 0.7104 -0.2291
vt 0.7165 -0.2512
vt 0.7325 -0.2291
vt 0.7386 -0.2512
vt 0.7417 -0.2291
vt 0.7478 -0.2512
vt 0.9797 -0.3598
vt 1.0084 -0.3598
vt 0.9750 -0.4863
vt 0.9981 -0.4866
vt 0.2578 -0.2473
vt 0.2571 -0.2300
vt 0.3217 -0.9299
vt 0.3723 -0.8752
vt 0.3217 -0.9299
vt 0.7417 -0.7950
vt 0.2583 -0.7950
vt 0.7458 -0.2500
vt 0.7500 -0.7458
vt 0.7500 -0.2500
vt 0.7458 -0.7458
vt 0.2542 -0.7458
vt 0.2542 -0.2500
vt 0.9790 -0.2430
vt 1.0000 -0.3703
vt 1.0001 -0.2416
vt 0.9789 -0.3717
vt 0.0050 -0.7458
vt 0.0000 -0.2500
vt 0.0000 -0.7458
vt 0.0050 -0.2500
vt 0.2417 -0.9917
vt -0.2417 -0.8000
vt -0.2417 -0.9917
vt 0.2417 -0.8000
vt -0.2419 -0.1655
vt 0.2415 0.2415
vt -0.2419 0.2415
vt 0.2415 -0.1655
vt 0.2400 -0.7500
vt 0.0100 -1.2417
vt 0.2400 -1.2417
vt 0.0100 -0.7500
vt 0.9145 -0.2504
vt 1.0004 -0.2304
vt 0.9151 -0.2300
vt 1.0004 -0.2500
vt 0.7379 -0.2336
vt 0.7427 -0.2512
vt 0.5797 -0.2504
vt 0.5797 -0.2323
vt 0.7396 -0.2512
vt 0.2634 -0.2297
vt 0.2597 -0.2489
vt 0.0002 -0.2489
vt 0.2566 -0.2489
vt 0.0054 -0.2297
vt 0.7458 -0.7550
vt 0.7500 -0.9950
vt 0.7500 -0.7550
vt 0.7458 -0.9950
vt 0.2500 -0.7550
vt 0.2542 -0.9950
vt 0.2542 -0.7550
vt 0.2500 -0.9950
vt 0.2583 -1.0000
vt 0.7417 -1.0000
vt 0.7458 -0.7500
vt 0.2542 -0.7500
vt 0.9789 -0.7458
vt 0.9029 -0.2500
vt 0.7511 -0.7458
vt 0.7511 -0.2500
vt 0.6226 -0.2384
vt 0.6220 -0.8827
vt 0.3743 -0.8875
vt 0.0867 -0.7500
vt 0.0100 -0.7500
vt 0.0100 -1.2417
vt 0.2400 -1.2417
vt 0.2400 -0.7500
vt -0.0806 -0.7500
vt -0.2417 -0.7500
vt -0.2417 -1.2417
vt 0.2417 -1.2417
vt 0.2417 -0.7500
vt 0.3717 -0.2417
vt 0.9777 -0.2492
vt 0.9980 -0.2443
vt 0.9784 -0.2302
vt 0.7268 -0.9776
vt 0.7321 -0.7641
vt 0.2773 -0.7658
vt 0.2773 -0.9781
vt 0.0035 -0.2499
vt 0.0047 -0.2328
vt 0.0004 -0.2381
vt 0.5819 -0.2500
vt 0.9789 -0.2500
vt 0.6359 -0.8801
vt 0.7282 -0.8736
vt 0.6220 -0.8827
vt 0.6359 -0.8801
vt 0.3711 -0.8846
vt 0.3692 -0.8762
vt 0.4128 -0.9326
vt 0.4208 -0.8822
vt 0.5012 -0.9328
vt 0.4290 -0.8713
vt 0.4373 -0.8638
vt 0.4456 -0.8599
vt 0.5018 -0.8577
vt 0.5606 -0.8595
vt 0.5725 -0.8647
vt 0.5808 -0.8730
vt 0.5849 -0.8813
vt 0.5896 -0.9331
vt 0.5937 -0.8827
vt 0.5007 -0.9829
vt 0.5893 -0.8235
vt 0.5937 -0.8827
vt 0.5849 -0.8813
vt 0.5808 -0.8730
vt 0.5725 -0.8647
vt 0.5606 -0.8595
vt 0.5007 -0.8241
vt 0.5018 -0.8577
vt 0.4456 -0.8599
vt 0.4122 -0.8246
vt 0.4373 -0.8638
vt 0.4290 -0.8713
vt 0.4208 -0.8822
vt 0.3711 -0.8846
vt 0.3692 -0.8762
vt 0.3258 -0.8235
vt 0.5039 -0.7661
vt 0.3258 -0.8235
vt 0.3692 -0.8762
vt 0.2763 -0.8754
vn 0.0000 -0.5255 0.8508
vn 0.0000 -0.5597 0.8287
vn 0.0149 -0.5266 0.8500
vn -0.0302 -0.5305 0.8472
vn 0.0000 -0.6202 0.7845
vn -0.0384 -0.6254 0.7794
vn 0.0000 -0.6580 0.7530
vn 0.0190 -0.6213 0.7833
vn -0.0000 0.9799 0.1994
vn 0.0000 0.9799 0.1993
vn 0.0021 -0.9789 -0.2043
vn 0.0000 -0.9799 -0.1994
vn -0.0003 -0.9788 -0.2050
vn -0.0004 -0.9780 -0.2086
vn 0.0027 -0.9787 -0.2053
vn 0.0236 -0.9777 -0.2089
vn 0.0697 0.9976 0.0000
vn 0.7571 0.6533 0.0000
vn 0.6065 0.7951 0.0000
vn 0.2406 0.9706 0.0000
vn 0.0071 1.0000 0.0000
vn -0.3779 0.9259 0.0000
vn -0.6582 0.7528 0.0000
vn -0.7836 0.6212 0.0000
vn -0.3502 0.9367 0.0000
vn -0.0307 0.9995 0.0000
vn -0.6707 -0.7417 0.0000
vn 0.6674 -0.7447 0.0000
vn 1.0000 0.0000 0.0000
vn 0.0000 0.9981 -0.0610
vn 0.7029 -0.7113 0.0000
vn -1.0000 0.0000 0.0000
vn 0.0000 -0.9981 0.0610
vn -0.3827 -0.1842 0.9053
vn 0.0000 -0.1993 0.9799
vn 0.3827 -0.1842 0.9053
vn 0.9239 -0.0763 0.3750
vn -0.9239 -0.0763 0.3750
vn -0.6623 -0.7492 0.0000
vn 0.0000 -1.0000 -0.0000
vn -0.7071 0.7071 0.0000
vn 0.7071 0.7071 0.0000
vn -0.4472 -0.8944 -0.0000
vn 0.4472 -0.8944 -0.0000
vn 0.0000 -0.0000 1.0000
vn 0.0000 1.0000 0.0000
vn 0.0128 0.0023 0.9999
vn 0.0132 0.0065 0.9999
vn 0.0131 0.0022 0.9999
vn 0.0132 0.0066 0.9999
vn -0.0064 -0.0010 1.0000
vn -0.0065 0.0032 1.0000
vn -0.0064 -0.0011 1.0000
vn -0.7070 -0.0147 -0.7070
vn 0.7070 -0.0147 -0.7070
vn 0.0000 -0.7071 -0.7071
vn 0.0000 0.7071 -0.7071
vn -0.9991 0.0009 0.0419
vn -0.9880 -0.1544 -0.0000
vn 0.9617 0.2743 0.0000
vn -0.9617 -0.2743 0.0000
vn 0.1730 -0.9849 0.0000
vn 0.8201 -0.5722 0.0000
vn 0.9507 -0.3100 -0.0000
vn 0.9991 0.0000 -0.0423
vn 0.9870 0.1609 0.0000
vn -0.0774 -0.9970 -0.0000
vn 0.0000 -0.9997 -0.0255
vn 0.0388 -0.9992 -0.0000
vn -0.8201 0.5722 0.0000
vn -0.4083 -0.8165 -0.4082
vn 0.0000 0.9997 0.0251
vn -0.5774 0.5774 -0.5773
vn 0.0761 0.9971 0.0000
vn 0.4083 -0.8165 -0.4082
vn -0.0381 0.9993 0.0000
vn 0.5774 0.5774 -0.5773
vn -0.9545 0.2983 0.0000
vn 0.3720 0.3753 -0.8490
vn -0.0203 0.0227 -0.9995
vn -0.0000 0.0000 -1.0000
vn 0.0224 0.0226 -0.9995
vn 0.0399 0.0017 -0.9992
vn 0.2965 0.0125 -0.9549
vn 0.1189 -0.0207 -0.9927
vn -0.0980 0.5580 -0.8240
vn 0.4926 0.6183 -0.6124
vn 0.0061 -0.1050 -0.9945
vn -0.0065 -0.0923 -0.9957
vn 0.0061 -0.0893 -0.9960
vn -0.0275 -0.0237 -0.9993
vn -0.0229 -0.0301 -0.9993
vn -0.0108 -0.0437 -0.9990
vn -0.0004 -0.0533 -0.9986
vn 0.0154 -0.0377 -0.9992
vn 0.0236 -0.0270 -0.9994
vn 0.0269 -0.0214 -0.9994
vn 0.0060 -0.0649 -0.9979
vn 0.0250 -0.0669 -0.9974
vn 0.0021 -0.0686 -0.9976
vn -0.2455 0.3198 -0.9151
vn 0.0060 -0.0652 -0.9979
vn 0.0057 0.0748 -0.9972
vn 0.0058 0.0437 -0.9990
vn -0.0001 0.0625 -0.9980
vn 0.5391 -0.3805 -0.7514
vn 0.0024 -0.0777 -0.9970
vn 0.0296 -0.0793 -0.9964
vn 0.0932 -0.0739 -0.9929
vn 0.0690 -0.0789 -0.9945
vn 0.0382 -0.0937 -0.9949
vn -0.0008 -0.1288 -0.9917
vn -0.0007 -0.1291 -0.9916
vn -0.0007 -0.1292 -0.9916
vn -0.0009 -0.1288 -0.9917
vn -0.0007 -0.1285 -0.9917
vn -0.0007 -0.1284 -0.9917
vn -0.0252 -0.1017 -0.9945
vn -0.0583 -0.0764 -0.9954
vn -0.0779 -0.0672 -0.9947
vn -0.0057 -0.0820 -0.9966
vn -0.4236 -0.3580 -0.8321
vn -0.0026 -0.3492 -0.9370
vn -0.0037 -0.4879 -0.8729
vn 0.0000 -0.4093 -0.9124
vn -0.0437 0.0004 -0.9990
vn -0.1915 0.0016 -0.9815
vn -0.0932 -0.0207 -0.9954
vn -0.0001 0.0869 -0.9962
vn 0.0056 0.1054 -0.9944
usemtl Tex_0020_0_png
s 1
f 102/1/1 104/2/1 103/3/1
f 103/3/1 104/2/1 105/4/1
f 106/5/1 107/6/1 103/3/1
f 103/3/1 107/6/1 108/7/1
f 103/3/1 105/4/1 106/5/1
f 109/8/1 111/9/1 110/10/1
f 110/10/1 111/9/1 112/11/1
f 112/11/1 111/9/1 113/12/1
f 112/11/1 113/12/1 107/6/1
f 107/6/1 113/12/1 108/7/1
f 107/6/1 106/5/1 112/11/1
f 112/11/1 106/5/1 105/4/1
f 112/11/1 105/4/1 110/10/1
f 110/10/1 105/4/1 104/2/1
f 110/10/2 104/2/2 114/13/2
f 114/13/3 104/2/3 102/1/3
f 110/10/4 114/13/4 109/8/4
f 102/1/5 116/14/5 115/15/5
f 116/14/5 117/16/5 115/15/5
f 118/17/5 119/18/5 115/15/5
f 115/15/5 119/18/5 120/19/5
f 115/15/5 117/16/5 118/17/5
f 117/16/5 121/20/5 118/17/5
f 118/17/5 121/20/5 119/18/5
f 116/14/5 122/21/5 117/16/5
f 117/16/5 122/21/5 121/20/5
f 114/13/6 109/8/6 122/21/6
f 114/13/7 122/21/7 116/14/7
f 114/13/8 116/14/8 102/1/8
f 122/21/5 109/8/5 123/22/5
f 122/21/5 123/22/5 121/20/5
f 121/20/5 123/22/5 124/23/5
f 121/20/5 124/23/5 119/18/5
f 119/18/5 124/23/5 120/19/5
usemtl Tex_0014_0_png
f 1/24/9 3/25/9 2/26/9
f 1/24/9 4/27/9 3/25/9
f 1/24/9 5/28/9 4/27/9
f 1/24/9 6/29/10 5/28/9
f 1/24/9 7/30/9 6/29/10
f 1/24/9 8/31/9 7/30/9
f 9/32/11 11/33/12 10/34/12
f 9/32/11 12/35/12 11/33/12
f 9/32/11 13/36/13 12/35/12
f 9/32/11 14/37/14 13/36/13
f 9/32/11 15/38/15 14/37/14
f 9/32/11 16/39/16 15/38/15
f 17/40/17 19/41/17 18/42/17
f 17/40/17 20/43/17 19/41/17
f 21/44/18 18/42/18 22/45/18
f 21/44/18 17/40/18 18/42/18
f 23/46/19 22/45/19 24/47/19
f 23/46/19 21/44/19 22/45/19
f 25/48/20 24/47/20 26/49/20
f 25/48/20 23/46/20 24/47/20
f 27/50/21 26/49/21 28/51/21
f 27/50/21 25/48/21 26/49/21
f 29/52/21 28/51/21 30/53/21
f 29/52/21 27/50/21 28/51/21
f 31/54/22 30/53/22 32/55/22
f 31/54/22 29/52/22 30/53/22
f 33/56/23 32/55/23 34/57/23
f 33/56/23 31/54/23 32/55/23
f 35/58/24 34/57/24 36/59/24
f 35/58/24 33/56/24 34/57/24
f 37/60/25 36/59/25 38/61/25
f 37/60/25 35/58/25 36/59/25
f 39/62/26 38/61/26 40/63/26
f 39/62/26 37/60/26 38/61/26
f 41/64/27 43/65/27 42/66/27
f 41/64/27 44/67/27 43/65/27
f 45/68/28 47/69/28 46/70/28
f 45/68/28 48/71/28 47/69/28
f 49/72/29 51/73/29 50/74/29
f 49/72/29 52/75/29 51/73/29
f 2/26/30 54/76/30 53/77/30
f 2/26/30 3/25/30 54/76/30
f 55/78/31 57/79/31 56/80/31
f 55/78/31 58/81/31 57/79/31
f 14/82/29 54/83/29 3/84/29
f 14/82/29 59/85/29 54/83/29
f 60/86/32 2/87/32 53/88/32
f 60/86/32 15/89/32 2/87/32
f 14/37/33 60/90/33 59/91/33
f 14/37/33 15/38/33 60/90/33
f 9/92/34 7/93/34 8/94/34
f 9/92/34 10/95/34 7/93/34
f 10/95/35 6/96/35 7/93/35
f 10/95/35 11/97/35 6/96/35
f 11/97/36 5/98/36 6/96/36
f 11/97/36 12/99/36 5/98/36
f 12/99/37 4/100/37 5/98/37
f 12/99/37 13/101/37 4/100/37
f 13/102/29 3/84/29 4/103/29
f 13/102/29 14/82/29 3/84/29
f 15/89/32 1/104/32 2/87/32
f 15/89/32 16/105/32 1/104/32
f 16/106/38 8/94/38 1/107/38
f 16/106/38 9/92/38 8/94/38
f 56/80/39 62/108/39 61/109/39
f 56/80/39 63/110/39 62/108/39
f 60/90/40 64/111/40 59/91/40
f 60/90/40 65/112/40 64/111/40
f 66/113/41 68/114/41 67/115/41
f 66/113/41 69/116/41 68/114/41
f 70/117/42 50/74/42 51/73/42
f 70/117/42 71/118/42 50/74/42
f 72/119/43 65/120/43 60/121/43
f 72/119/43 73/122/43 65/120/43
f 52/123/44 59/124/44 64/125/44
f 52/123/44 49/126/44 59/124/44
f 74/127/45 76/128/45 75/129/45
f 74/127/45 77/130/45 76/128/45
f 53/131/46 74/132/46 75/133/46
f 53/131/46 54/134/46 74/132/46
f 54/135/32 77/136/32 74/137/32
f 54/135/32 78/138/32 77/136/32
f 79/139/45 53/140/45 80/141/45
f 79/139/45 72/142/45 53/140/45
f 79/139/45 81/143/45 67/144/45
f 79/139/45 80/141/45 81/143/45
f 82/145/47 81/143/48 83/146/49
f 82/145/47 66/147/50 81/143/48
f 82/145/51 78/148/52 71/149/52
f 82/145/51 83/146/53 78/148/52
f 78/148/45 49/150/45 50/151/45
f 78/148/45 54/152/45 49/150/45
f 84/153/54 73/154/54 68/155/54
f 84/153/54 85/156/54 73/154/54
f 51/157/55 87/158/55 86/159/55
f 51/157/55 52/160/55 87/158/55
f 85/156/56 64/161/56 65/162/56
f 85/156/56 87/158/56 64/161/56
f 69/163/57 86/159/57 84/153/57
f 69/163/57 70/164/57 86/159/57
f 73/165/58 79/166/58 68/167/58
f 68/167/59 79/166/59 67/168/59
f 43/169/60 39/62/60 40/63/60
f 44/67/61 39/170/61 43/65/61
f 43/65/62 47/69/62 48/71/62
f 20/171/63 56/80/63 61/109/63
f 80/172/64 53/173/64 75/174/64
f 80/172/65 75/174/65 76/175/65
f 80/172/66 76/175/66 81/176/66
f 83/177/67 81/178/67 76/179/67
f 83/177/68 76/179/68 77/180/68
f 83/177/69 77/180/69 78/181/69
f 20/43/70 61/182/70 19/41/70
f 72/183/45 60/184/45 53/185/45
f 88/186/28 45/68/28 46/70/28
f 89/187/27 41/64/27 42/66/27
f 66/147/45 67/144/45 81/143/45
f 58/81/31 90/188/31 57/79/31
f 63/110/39 91/189/39 62/108/39
f 50/151/45 71/149/45 78/148/45
f 20/171/63 55/78/63 56/80/63
f 49/190/45 54/191/45 59/192/45
f 85/156/71 65/162/71 73/154/71
f 70/117/72 69/116/72 82/193/72
f 68/155/73 69/163/73 84/153/73
f 82/193/74 69/116/74 66/113/74
f 87/158/75 52/160/75 64/161/75
f 70/117/76 82/193/76 71/118/76
f 86/159/77 70/164/77 51/157/77
f 73/165/78 72/194/78 79/166/78
f 48/195/79 42/66/79 43/65/79
f 45/68/80 42/66/80 48/195/80
f 92/196/81 45/68/81 88/186/81
f 92/196/82 42/66/82 45/68/82
f 92/196/83 89/187/83 42/66/83
f 85/156/81 92/196/81 88/186/81
f 92/196/84 84/153/84 89/187/84
f 85/156/85 84/153/85 92/196/85
f 40/197/86 47/198/86 43/65/86
f 62/108/87 19/199/87 61/200/87
f 93/201/88 19/199/88 62/108/88
f 93/201/89 18/202/89 19/199/89
f 94/203/90 18/202/90 93/201/90
f 94/203/91 22/204/91 18/202/91
f 94/203/92 24/205/92 22/204/92
f 94/203/93 26/206/93 24/205/93
f 94/203/94 28/207/94 26/206/94
f 94/203/94 30/208/94 28/207/94
f 94/203/95 32/209/95 30/208/95
f 94/203/96 34/210/96 32/209/96
f 94/203/97 36/211/97 34/210/97
f 95/212/98 36/211/98 94/203/98
f 95/212/99 38/213/99 36/211/99
f 95/212/100 40/197/100 38/213/100
f 40/197/101 46/70/101 47/198/101
f 95/212/102 46/70/102 40/197/102
f 96/214/103 94/203/103 93/201/103
f 96/214/103 95/212/103 94/203/103
f 95/212/104 88/186/104 46/70/104
f 96/214/105 88/186/105 95/212/105
f 96/214/81 85/156/81 88/186/81
f 87/158/81 96/214/81 91/189/81
f 87/158/81 85/156/81 96/214/81
f 97/215/81 44/67/81 41/64/81
f 97/215/106 39/170/106 44/67/106
f 97/215/107 37/216/107 39/170/107
f 97/215/108 35/217/108 37/216/108
f 97/215/109 33/218/109 35/217/109
f 97/215/110 31/219/110 33/218/110
f 97/215/111 29/220/111 31/219/111
f 98/221/112 29/220/113 97/215/114
f 98/221/112 27/222/115 29/220/113
f 98/221/112 25/223/116 27/222/115
f 99/224/117 25/223/116 98/221/112
f 99/224/118 23/225/118 25/223/118
f 99/224/119 21/226/119 23/225/119
f 99/224/120 17/227/120 21/226/120
f 99/224/121 20/228/121 17/227/121
f 99/224/122 55/229/122 20/228/122
f 99/224/81 58/230/81 55/229/81
f 100/231/81 41/64/81 89/187/81
f 100/231/81 97/215/81 41/64/81
f 100/231/81 98/221/81 97/215/81
f 100/231/81 99/224/81 98/221/81
f 100/231/81 58/230/81 99/224/81
f 100/231/81 90/188/81 58/230/81
f 100/231/123 86/159/123 90/188/123
f 84/153/124 100/231/124 89/187/124
f 84/153/125 86/159/125 100/231/125
f 57/232/126 63/110/126 56/233/126
f 101/234/126 57/232/126 90/188/126
f 101/234/126 63/110/126 57/232/126
f 101/234/126 91/189/126 63/110/126
f 101/234/81 87/158/81 91/189/81
f 86/159/127 101/234/127 90/188/127
f 86/159/128 87/158/128 101/234/128
f 93/201/129 91/189/129 96/214/129
f 93/201/130 62/108/130 91/189/130
