mtllib WpnPikminR.mtl

v 0.588867 10.194336 -0.569336
v 0.008301 10.549316 -0.769531
v 0.823730 11.169922 -0.696289
v 0.008301 9.979980 0.053711
v 0.831543 10.547363 0.053711
v 0.630859 10.192871 0.634277
v 0.758301 11.167969 0.869629
v 0.008301 10.547363 0.877441
v -0.268066 12.582031 -0.500977
v -0.545898 12.581543 0.332031
v 0.010254 12.845215 0.055176
v -1.086426 11.172363 0.053711
v -0.742188 11.171875 -0.761719
v -0.814941 10.549316 0.053711
v -0.807617 11.170410 0.804199
v 0.008301 11.169434 1.148438
v 0.287109 12.580566 0.609863
v 0.564941 12.581055 -0.223633
v 1.102539 11.168945 0.053711
v 0.008301 11.171875 -1.040527
v -0.572754 10.194824 0.676758
v -0.615234 10.196289 -0.527344

vt 0.000000 1.000000
vt 0.000000 1.000000
vt 0.000000 1.000000
vt 0.000000 1.000000
vt 0.000000 1.000000
vt 0.000000 1.000000
vt 0.000000 1.000000
vt 0.000000 1.000000
vt 0.000000 1.000000
vt 0.000000 1.000000
vt 0.000000 1.000000
vt 0.000000 1.000000
vt 0.000000 1.000000
vt 0.000000 1.000000
vt 0.000000 1.000000
vt 0.000000 1.000000
vt 0.000000 1.000000
vt 0.000000 1.000000
vt 0.000000 1.000000
vt 0.000000 1.000000
vt 0.000000 1.000000
vt 0.000000 1.000000

vn 0.492737 -0.700867 -0.515747
vn -0.003235 -0.506049 -0.862499
vn 0.708850 -0.104612 -0.697559
vn -0.001282 -0.999999 -0.000977
vn 0.862001 -0.506898 -0.003113
vn 0.514401 -0.701472 0.493283
vn 0.697346 -0.104983 0.709004
vn 0.001892 -0.506827 0.862046
vn -0.294988 0.675427 -0.675855
vn -0.675654 0.675044 0.296323
vn 0.001038 0.999999 0.001160
vn -0.999576 -0.027710 -0.008911
vn -0.697459 -0.103883 -0.709055
vn -0.862570 -0.505933 0.002014
vn -0.709240 -0.104250 0.697216
vn -0.008911 -0.028625 0.999550
vn 0.296391 0.673715 0.676950
vn 0.677123 0.674132 -0.295043
vn 0.999540 -0.028993 0.008850
vn 0.008850 -0.028076 -0.999567
vn -0.494568 -0.700744 0.514160
vn -0.515574 -0.700086 -0.494028

g polygon0
s 1
usemtl mat2
f 1/1/1 2/2/2 3/3/3
f 1/1/1 4/4/4 2/2/2
f 5/5/5 4/4/4 1/1/1
f 5/5/5 6/6/6 4/4/4
f 7/7/7 6/6/6 5/5/5
f 7/7/7 8/8/8 6/6/6
f 9/9/9 10/10/10 11/11/11
f 9/9/9 12/12/12 10/10/10
f 13/13/13 12/12/12 9/9/9
f 13/13/13 14/14/14 12/12/12
f 15/15/15 12/12/12 14/14/14
f 15/15/15 10/10/10 12/12/12
f 16/16/16 10/10/10 15/15/15
f 16/16/16 17/17/17 10/10/10
f 17/17/17 18/18/18 11/11/11
f 17/17/17 19/19/19 18/18/18
f 7/7/7 19/19/19 17/17/17
f 7/7/7 5/5/5 19/19/19
f 3/3/3 19/19/19 5/5/5
f 3/3/3 18/18/18 19/19/19
f 20/20/20 18/18/18 3/3/3
f 20/20/20 9/9/9 18/18/18
f 8/8/8 4/4/4 6/6/6
f 8/8/8 21/21/21 4/4/4
f 15/15/15 21/21/21 8/8/8
f 15/15/15 14/14/14 21/21/21
f 14/14/14 4/4/4 21/21/21
f 14/14/14 22/22/22 4/4/4
f 13/13/13 22/22/22 14/14/14
f 13/13/13 2/2/2 22/22/22
f 20/20/20 13/13/13 9/9/9
f 20/20/20 2/2/2 13/13/13
f 3/3/3 2/2/2 20/20/20
f 8/8/8 16/16/16 15/15/15
f 8/8/8 7/7/7 16/16/16
f 11/11/11 10/10/10 17/17/17
f 18/18/18 9/9/9 11/11/11
f 16/16/16 7/7/7 17/17/17
f 5/5/5 1/1/1 3/3/3
f 4/4/4 22/22/22 2/2/2

v -0.425781 11.267578 0.125000
v -0.086914 10.924316 -0.512695
v -0.557617 10.923340 0.142090
v -0.062012 11.268066 -0.380859
v 0.009277 11.421875 0.054199
v 0.443848 11.268066 -0.017090
v 0.080078 11.267578 0.488770
v 0.570313 10.923828 -0.040527
v 0.099609 10.922852 0.614258
v 0.008301 10.050781 0.053223
v -0.557617 10.923340 0.142090
v -0.086914 10.924316 -0.512695
v 0.099609 10.922852 0.614258
v 0.570313 10.923828 -0.040527
v -0.607422 10.991211 -1.842285
v 0.008789 10.867188 0.053223
v 0.438477 10.575195 -1.270020
v -1.116699 10.575684 -0.764648
v 0.008789 10.867188 0.053223
v 1.621582 10.988770 -1.118164
v 0.438477 10.575195 -1.270020
v 1.399414 10.572754 0.053223
v 0.008789 10.867188 0.053223
v -0.607422 10.985840 1.949707
v 0.438477 10.571777 1.375977
v -1.116699 10.573730 0.870605
v 1.621582 10.985352 1.225098
v 0.008789 10.867188 0.053223
v 0.438477 10.571777 1.375977
v 1.399414 10.572754 0.053223
v -1.984863 10.989746 0.053711
v 0.008789 10.867188 0.053223
v -1.116699 10.575684 -0.764648
v -1.116699 10.573730 0.870605

vt 0.000000 1.000000
vt 0.000000 1.000000
vt 0.000000 1.000000
vt 0.000000 1.000000
vt 0.000000 1.000000
vt 0.000000 1.000000
vt 0.000000 1.000000
vt 0.000000 1.000000
vt 0.000000 1.000000
vt 0.000000 1.000000
vt 0.000000 1.000000
vt 0.000000 1.000000
vt 0.000000 1.000000
vt 0.000000 1.000000
vt 0.000000 1.000000
vt 0.000000 1.000000
vt 0.000000 1.000000
vt 0.000000 1.000000
vt 0.000000 1.000000
vt 0.000000 1.000000
vt 0.000000 1.000000
vt 0.000000 1.000000
vt 0.000000 1.000000
vt 0.000000 1.000000
vt 0.000000 1.000000
vt 0.000000 1.000000
vt 0.000000 1.000000
vt 0.000000 1.000000
vt 0.000000 1.000000
vt 0.000000 1.000000
vt 0.000000 1.000000
vt 0.000000 1.000000
vt 0.000000 1.000000
vt 0.000000 1.000000

vn -0.642636 0.758664 0.106994
vn -0.148922 0.363700 -0.919535
vn -0.920232 0.360170 0.153138
vn -0.104433 0.760144 -0.641307
vn -0.000244 0.999999 0.001038
vn 0.646061 0.756108 -0.104432
vn 0.105958 0.754642 0.647525
vn 0.924891 0.349436 -0.149906
vn 0.152035 0.345878 0.925880
vn 0.001038 -0.999999 0.000427
vn -0.824898 -0.548772 0.135621
vn -0.134152 -0.549179 -0.824867
vn 0.135500 -0.546213 0.826614
vn 0.826397 -0.546618 -0.135190
vn 0.019471 0.998067 0.059022
vn 0.019471 0.998067 0.059022
vn 0.401805 0.912989 -0.070742
vn -0.366207 0.913199 0.178770
vn -0.048400 0.998143 0.036986
vn -0.048400 0.998143 0.036986
vn -0.281619 0.913765 -0.292788
vn 0.193056 0.912547 0.360539
vn 0.019470 0.998222 -0.056335
vn 0.019470 0.998222 -0.056335
vn 0.401800 0.912794 0.073243
vn -0.366203 0.913676 -0.176327
vn -0.048401 0.998239 -0.034302
vn -0.048401 0.998239 -0.034302
vn -0.281615 0.912961 0.295287
vn 0.193058 0.913530 -0.358039
vn 0.061402 0.998112 0.001343
vn 0.061402 0.998112 0.001343
vn 0.056152 0.913686 -0.402522
vn 0.056151 0.912581 0.405022

g polygon1
s 1
usemtl mat2
f 23/23/23 24/24/24 25/25/25
f 23/23/23 26/26/26 24/24/24
f 27/27/27 26/26/26 23/23/23
f 27/27/27 28/28/28 26/26/26
f 29/29/29 28/28/28 27/27/27
f 29/29/29 30/30/30 28/28/28
f 31/31/31 30/30/30 29/29/29
f 32/32/32 33/33/33 34/34/34
f 32/32/32 35/35/35 33/33/33
f 36/36/36 35/35/35 32/32/32
f 37/37/37 38/38/38 39/39/39
f 37/37/37 40/40/40 38/38/38
f 41/41/41 42/42/42 43/43/43
f 41/41/41 44/44/44 42/42/42
f 45/45/45 46/46/46 47/47/47
f 45/45/45 48/48/48 46/46/46
f 49/49/49 50/50/50 51/51/51
f 49/49/49 52/52/52 50/50/50
f 53/53/53 54/54/54 55/55/55
f 53/53/53 56/56/56 54/54/54
f 23/23/23 29/29/29 27/27/27
f 23/23/23 25/25/25 29/29/29
f 30/30/30 26/26/26 28/28/28
f 30/30/30 24/24/24 26/26/26
f 32/32/32 34/34/34 36/36/36
f 25/25/25 31/31/31 29/29/29

v -0.027344 12.461914 0.201172
v 1.793457 12.282715 -0.208496
v -0.046875 14.951660 -0.153320
v -0.007813 9.972168 0.041992
v -1.861816 12.254395 -0.178711

vt 0.500000 0.437500
vt -0.300659 0.398621
vt 0.500000 1.000000
vt 0.500000 0.000000
vt -0.300659 0.398621

vn 0.008484 0.038636 0.999217
vn 0.223027 0.039307 0.974019
vn 0.007629 0.141050 0.989973
vn 0.009216 -0.063782 0.997921
vn -0.206482 0.036133 0.977783

g polygon2
s 1
usemtl mat4
f 57/57/57 58/58/58 59/59/59
f 57/57/57 60/60/60 58/58/58
f 61/61/61 60/60/60 57/57/57
f 57/57/57 59/59/59 61/61/61

v -0.434186 1.051883 0.554328
v -0.411725 0.574833 0.446906
v -0.243756 0.883915 0.220832
v -0.667584 0.828739 0.285285
v -0.671875 1.580566 0.162598
v -0.373522 1.103392 -0.248535
v -0.324219 1.366211 -0.407715
v 0.373060 1.103392 -0.248535
v 0.324219 1.367188 -0.407715
v 0.671875 1.582031 0.162109
v 0.548353 2.437629 -0.066406
v 0.493665 2.615851 0.291504
v 1.169032 2.417702 0.010118
v 1.190516 2.584206 -0.149550
v 2.051844 2.676980 0.281603
v 1.153407 2.395730 -0.298964
v -0.302734 3.219727 0.370117
v 0.000261 3.899530 0.779888
v -0.765364 4.014765 0.530864
v 0.301270 3.214355 0.365723
v -0.368652 1.701660 0.742676
v 0.376953 1.698242 0.734375
v 0.434212 1.051885 0.554328
v 0.667610 0.828741 0.285285
v 0.325325 0.557256 0.082648
v 0.243782 0.883917 0.220832
v 0.411751 0.574835 0.446906
v -0.325299 0.557255 0.082648
v -0.396588 0.056278 -0.022332
v 1.645106 2.661843 0.083361
v 1.926844 2.606179 0.181017
v 1.862879 2.720437 0.264025
v 2.018641 2.465554 0.117052
v 1.829188 2.742409 0.128282
v 2.107508 2.675515 0.308458
v 1.814540 2.847878 0.365587
v -1.864349 2.721901 0.270372
v -1.928314 2.607155 0.188341
v -1.647552 2.662819 0.089220
v -2.108978 2.676491 0.316271
v -1.831635 2.743385 0.134142
v -2.020599 2.465553 0.125841
v -1.816498 2.850319 0.370470
v 0.761004 4.014277 0.530864
v 0.991472 3.926874 -0.030659
v 0.451185 2.996222 -0.064453
v 0.527605 3.640741 -0.898823
v 0.000000 2.952148 -0.351074
v 0.000261 3.605585 -1.081929
v -0.530500 3.641230 -0.898823
v 0.551888 0.048467 0.170539
v 0.812142 0.049444 0.274543
v 0.379036 0.210088 0.018683
v 0.391243 0.047979 -0.109735
v 0.389778 0.048467 0.222785
v 0.172005 0.048467 0.409797
v -1.193451 2.583717 -0.145643
v -0.496081 2.614875 0.291504
v -0.454577 2.994269 -0.065918
v -1.170990 2.418190 0.015001
v -2.053314 2.678932 0.289415
v -1.156342 2.394752 -0.294081
v -0.389752 0.048465 0.222785
v -0.171979 0.048465 0.409797
v -0.379010 0.210087 0.018683
v -0.391217 0.047977 -0.109735
v -0.551862 0.048465 0.170539
v -0.812116 0.049442 0.274543
v -0.995832 3.927362 -0.030659
v 0.396614 0.056280 -0.022332
v -0.550280 2.436652 -0.065918
v 0.535774 0.049444 0.519660
v -0.535748 0.049442 0.519660
v 0.194109 4.228632 0.843364
v 0.866961 4.696894 0.620220
v 1.092058 4.619745 -0.337788
v 0.574968 4.999628 -1.040425
v -0.000227 4.148066 -1.402241
v 0.000261 5.222284 -1.307026
v -0.559309 5.008417 -1.043355
v -0.811262 5.566523 -0.272847
v -1.063215 5.206659 -0.067280
v -0.676496 5.458124 0.413189
v -0.871321 4.697382 0.619731
v -0.000227 5.582148 0.625591
v 0.001726 4.598261 0.924419
v -1.087141 4.626581 -0.341206
v -0.198469 4.228632 0.843364
v -0.000227 3.947870 1.993267
v -0.313215 5.860468 -0.189839
v -0.000227 5.853632 -0.658101
v 0.000000 7.338867 -0.441406
v 0.227051 7.328613 -0.139160
v 0.130371 8.744629 -0.169922
v 0.000000 8.731445 0.123535
v 0.008789 10.088379 0.053711
v -0.116699 8.745117 -0.169434
v 0.807879 5.566034 -0.272847
v 0.309343 5.860468 -0.189839
v 0.676531 5.456659 0.411235
v -0.000715 5.942987 0.175396
v -0.224609 7.329590 -0.139160
v -0.000488 7.336914 0.149414
v 1.092547 5.202265 -0.082417

vt 0.000000 1.000000
vt 0.000000 1.000000
vt 0.000000 1.000000
vt 0.000000 1.000000
vt 0.000000 1.000000
vt 0.000000 1.000000
vt 0.000000 1.000000
vt 0.000000 1.000000
vt 0.000000 1.000000
vt 0.000000 1.000000
vt 0.000000 1.000000
vt 0.000000 1.000000
vt 0.000000 1.000000
vt 0.000000 1.000000
vt 0.000000 1.000000
vt 0.000000 1.000000
vt 0.000000 1.000000
vt 0.000000 1.000000
vt 0.000000 1.000000
vt 0.000000 1.000000
vt 0.000000 1.000000
vt 0.000000 1.000000
vt 0.000000 1.000000
vt 0.000000 1.000000
vt 0.000000 1.000000
vt 0.000000 1.000000
vt 0.000000 1.000000
vt 0.000000 1.000000
vt 0.000000 1.000000
vt 0.000000 1.000000
vt 0.000000 1.000000
vt 0.000000 1.000000
vt 0.000000 1.000000
vt 0.000000 1.000000
vt 0.000000 1.000000
vt 0.000000 1.000000
vt 0.000000 1.000000
vt 0.000000 1.000000
vt 0.000000 1.000000
vt 0.000000 1.000000
vt 0.000000 1.000000
vt 0.000000 1.000000
vt 0.000000 1.000000
vt 0.000000 1.000000
vt 0.000000 1.000000
vt 0.000000 1.000000
vt 0.000000 1.000000
vt 0.000000 1.000000
vt 0.000000 1.000000
vt 0.000000 1.000000
vt 0.000000 1.000000
vt 0.000000 1.000000
vt 0.000000 1.000000
vt 0.000000 1.000000
vt 0.000000 1.000000
vt 0.000000 1.000000
vt 0.000000 1.000000
vt 0.000000 1.000000
vt 0.000000 1.000000
vt 0.000000 1.000000
vt 0.000000 1.000000
vt 0.000000 1.000000
vt 0.000000 1.000000
vt 0.000000 1.000000
vt 0.000000 1.000000
vt 0.000000 1.000000
vt 0.000000 1.000000
vt 0.000000 1.000000
vt 0.000000 1.000000
vt 0.000000 1.000000
vt 0.000000 1.000000
vt 0.000000 1.000000
vt 0.000000 1.000000
vt 0.000000 1.000000
vt 0.000000 1.000000
vt 0.000000 1.000000
vt 0.000000 1.000000
vt 0.000000 1.000000
vt 0.000000 1.000000
vt 0.000000 1.000000
vt 0.000000 1.000000
vt 0.000000 1.000000
vt 0.000000 1.000000
vt 0.000000 1.000000
vt 0.000000 1.000000
vt 0.000000 1.000000
vt 0.000000 1.000000
vt 0.000000 1.000000
vt 0.000000 1.000000
vt 0.000000 1.000000
vt 0.000000 1.000000
vt 0.000000 1.000000
vt 0.000000 1.000000
vt 0.000000 1.000000
vt 0.000000 1.000000
vt 0.000000 1.000000
vt 0.000000 1.000000
vt 0.000000 1.000000
vt 0.000000 1.000000
vt 0.000000 1.000000
vt 0.000000 1.000000
vt 0.000000 1.000000
vt 0.000000 1.000000
vt 0.000000 1.000000

vn -0.295290 -0.458499 0.838202
vn 0.461115 -0.435602 0.773061
vn 0.754212 -0.643372 0.131287
vn -0.979021 -0.197941 -0.048341
vn -0.999851 0.010864 0.013427
vn -0.294797 -0.620295 -0.726862
vn -0.441837 -0.194032 -0.875861
vn 0.288571 -0.530511 -0.797048
vn 0.524921 -0.110844 -0.843902
vn 0.999869 0.011352 0.011536
vn 0.633847 -0.407103 -0.657651
vn 0.809259 0.192931 0.554867
vn 0.082274 -0.649770 0.755665
vn 0.326532 0.937239 0.122312
vn 0.614151 0.753009 -0.236212
vn 0.164735 -0.349428 -0.922368
vn -0.621040 -0.203249 0.756967
vn 0.001831 -0.570931 0.820996
vn -0.583383 -0.337041 0.738964
vn 0.555038 -0.142330 0.819557
vn -0.426635 0.026001 0.904050
vn 0.601852 0.046019 0.797281
vn 0.285831 -0.320866 0.902965
vn 0.979012 -0.198000 -0.048279
vn -0.751572 -0.336907 -0.567127
vn -0.547488 -0.830754 0.100525
vn -0.461185 -0.435611 0.773015
vn 0.751572 -0.336907 -0.567127
vn -0.310177 -0.855032 -0.415584
vn -0.738039 -0.540224 0.404298
vn 0.225342 -0.705202 0.672243
vn 0.032715 -0.271122 0.961989
vn 0.881686 0.205574 -0.424699
vn 0.513782 0.689742 -0.510181
vn 0.758983 0.651072 0.007080
vn 0.330864 0.931070 0.153744
vn -0.027222 -0.264228 0.964076
vn -0.219970 -0.701046 0.678342
vn 0.741694 -0.535152 0.404355
vn -0.760762 0.649004 0.005860
vn -0.518124 0.684566 -0.512753
vn -0.884098 0.200074 -0.422304
vn -0.332400 0.931403 0.148317
vn 0.584414 -0.336610 0.738345
vn 0.921705 -0.356145 0.153689
vn 0.875596 -0.030029 -0.482109
vn 0.637862 -0.448841 -0.625838
vn 0.001648 -0.338933 -0.940809
vn 0.000671 -0.635435 -0.772154
vn -0.637371 -0.445177 -0.628948
vn 0.164670 -0.890244 0.424676
vn 0.730099 -0.110717 0.674313
vn -0.105954 0.962923 0.248100
vn -0.131162 -0.904768 -0.405205
vn -0.161560 -0.880370 0.445922
vn -0.931177 -0.131473 0.340036
vn -0.324765 0.938407 0.117980
vn -0.808639 0.192562 0.555898
vn -0.873931 -0.032409 -0.484968
vn -0.079589 -0.645681 0.759449
vn -0.615358 0.750552 -0.240845
vn -0.169800 -0.354065 -0.919677
vn 0.161560 -0.880370 0.445922
vn 0.931177 -0.131473 0.340036
vn 0.105954 0.962923 0.248100
vn 0.131162 -0.904768 -0.405205
vn -0.164670 -0.890244 0.424676
vn -0.730099 -0.110717 0.674313
vn -0.923169 -0.353337 0.151369
vn 0.310177 -0.855092 -0.415461
vn -0.634160 -0.409061 -0.656133
vn -0.275879 0.387878 0.879455
vn 0.275879 0.387878 0.879455
vn 0.756002 -0.181218 0.628984
vn 0.749523 0.079591 0.657176
vn 0.971939 -0.067689 -0.225284
vn 0.704449 0.187678 -0.684491
vn -0.001221 -0.198791 -0.980041
vn -0.000793 0.527522 -0.849541
vn -0.709651 0.187987 -0.679011
vn -0.650953 0.705092 -0.281256
vn -0.942130 0.335202 -0.005615
vn -0.577099 0.661573 0.478830
vn -0.753407 0.087828 0.651663
vn 0.001343 0.490165 0.871629
vn 0.002563 0.265744 0.964040
vn -0.972414 -0.043091 -0.229248
vn -0.753327 -0.180427 0.632411
vn 0.022095 -0.360045 0.932673
vn -0.821709 0.565485 -0.070861
vn 0.167785 0.657408 -0.734617
vn -0.206537 0.127743 -0.970064
vn 0.994022 0.054077 0.094849
vn 0.821669 0.150881 -0.549631
vn -0.011840 0.075926 0.997043
vn -0.053224 0.698927 -0.713210
vn -0.815064 0.155090 -0.558228
vn 0.637327 0.717100 -0.282104
vn 0.765073 0.640623 0.065307
vn 0.570852 0.665577 0.480766
vn 0.000427 0.605902 0.795540
vn -0.976123 0.048522 0.211728
vn -0.003357 0.018616 0.999821
vn 0.940291 0.340326 -0.005554

g polygon3
s 1
usemtl mat1
f 62/62/62 63/63/63 64/64/64
f 62/62/62 65/65/65 63/63/63
f 66/66/66 65/65/65 62/62/62
f 66/66/66 67/67/67 65/65/65
f 68/68/68 67/67/67 66/66/66
f 68/68/68 69/69/69 67/67/67
f 70/70/70 69/69/69 68/68/68
f 70/70/70 71/71/71 69/69/69
f 72/72/72 71/71/71 70/70/70
f 72/72/72 73/73/73 71/71/71
f 74/74/74 73/73/73 72/72/72
f 74/74/74 75/75/75 73/73/73
f 76/76/76 75/75/75 74/74/74
f 76/76/76 77/77/77 75/75/75
f 74/74/74 77/77/77 76/76/76
f 74/74/74 72/72/72 77/77/77
f 78/78/78 79/79/79 80/80/80
f 78/78/78 81/81/81 79/79/79
f 82/82/82 81/81/81 78/78/78
f 82/82/82 83/83/83 81/81/81
f 84/84/84 83/83/83 82/82/82
f 84/84/84 71/71/71 83/83/83
f 85/85/85 71/71/71 84/84/84
f 85/85/85 69/69/69 71/71/71
f 86/86/86 69/69/69 85/85/85
f 86/86/86 87/87/87 69/69/69
f 88/88/88 87/87/87 86/86/86
f 88/88/88 84/84/84 87/87/87
f 85/85/85 84/84/84 88/88/88
f 62/62/62 84/84/84 82/82/82
f 62/62/62 87/87/87 84/84/84
f 64/64/64 87/87/87 62/62/62
f 64/64/64 67/67/67 87/87/87
f 89/89/89 67/67/67 64/64/64
f 89/89/89 65/65/65 67/67/67
f 90/90/90 65/65/65 89/89/89
f 90/90/90 63/63/63 65/65/65
f 89/89/89 63/63/63 90/90/90
f 89/89/89 64/64/64 63/63/63
f 91/91/91 92/92/92 93/93/93
f 91/91/91 94/94/94 92/92/92
f 95/95/95 94/94/94 91/91/91
f 95/95/95 92/92/92 94/94/94
f 96/96/96 92/92/92 95/95/95
f 96/96/96 93/93/93 92/92/92
f 95/95/95 93/93/93 96/96/96
f 95/95/95 97/97/97 93/93/93
f 91/91/91 97/97/97 95/95/95
f 91/91/91 93/93/93 97/97/97
f 98/98/98 99/99/99 100/100/100
f 98/98/98 101/101/101 99/99/99
f 102/102/102 101/101/101 98/98/98
f 102/102/102 99/99/99 101/101/101
f 103/103/103 99/99/99 102/102/102
f 103/103/103 100/100/100 99/99/99
f 102/102/102 100/100/100 103/103/103
f 102/102/102 104/104/104 100/100/100
f 98/98/98 104/104/104 102/102/102
f 98/98/98 100/100/100 104/104/104
f 81/81/81 105/105/105 79/79/79
f 81/81/81 106/106/106 105/105/105
f 107/107/107 106/106/106 81/81/81
f 107/107/107 108/108/108 106/106/106
f 109/109/109 108/108/108 107/107/107
f 109/109/109 110/110/110 108/108/108
f 111/111/111 110/110/110 109/109/109
f 112/112/112 113/113/113 114/114/114
f 112/112/112 115/115/115 113/113/113
f 116/116/116 115/115/115 112/112/112
f 116/116/116 117/117/117 115/115/115
f 114/114/114 117/117/117 116/116/116
f 114/114/114 115/115/115 117/117/117
f 113/113/113 115/115/115 114/114/114
f 118/118/118 119/119/119 120/120/120
f 118/118/118 121/121/121 119/119/119
f 122/122/122 121/121/121 118/118/118
f 122/122/122 123/123/123 121/121/121
f 118/118/118 123/123/123 122/122/122
f 118/118/118 120/120/120 123/123/123
f 124/124/124 125/125/125 126/126/126
f 124/124/124 127/127/127 125/125/125
f 128/128/128 127/127/127 124/124/124
f 128/128/128 129/129/129 127/127/127
f 130/130/130 78/78/78 80/80/80
f 130/130/130 120/120/120 78/78/78
f 111/111/111 120/120/120 130/130/130
f 111/111/111 109/109/109 120/120/120
f 82/82/82 66/66/66 62/62/62
f 82/82/82 119/119/119 66/66/66
f 78/78/78 119/119/119 82/82/82
f 78/78/78 120/120/120 119/119/119
f 72/72/72 107/107/107 77/77/77
f 72/72/72 109/109/109 107/107/107
f 70/70/70 109/109/109 72/72/72
f 70/70/70 68/68/68 109/109/109
f 131/131/131 86/86/86 85/85/85
f 131/131/131 88/88/88 86/86/86
f 85/85/85 88/88/88 131/131/131
f 73/73/73 83/83/83 71/71/71
f 73/73/73 81/81/81 83/83/83
f 107/107/107 81/81/81 73/73/73
f 132/132/132 121/121/121 123/123/123
f 132/132/132 119/119/119 121/121/121
f 66/66/66 119/119/119 132/132/132
f 133/133/133 116/116/116 112/112/112
f 133/133/133 114/114/114 116/116/116
f 112/112/112 114/114/114 133/133/133
f 134/134/134 128/128/128 124/124/124
f 134/134/134 126/126/126 128/128/128
f 75/75/75 107/107/107 73/73/73
f 75/75/75 77/77/77 107/107/107
f 120/120/120 132/132/132 123/123/123
f 120/120/120 109/109/109 132/132/132
f 68/68/68 132/132/132 109/109/109
f 68/68/68 66/66/66 132/132/132
f 126/126/126 127/127/127 129/129/129
f 126/126/126 129/129/129 128/128/128
f 125/125/125 127/127/127 126/126/126
f 134/134/134 124/124/124 126/126/126
f 69/69/69 87/87/87 67/67/67
f 105/105/105 135/135/135 79/79/79
f 105/105/105 136/136/136 135/135/135
f 106/106/106 136/136/136 105/105/105
f 106/106/106 137/137/137 136/136/136
f 108/108/108 137/137/137 106/106/106
f 108/108/108 138/138/138 137/137/137
f 139/139/139 138/138/138 108/108/108
f 139/139/139 140/140/140 138/138/138
f 141/141/141 140/140/140 139/139/139
f 141/141/141 142/142/142 140/140/140
f 143/143/143 142/142/142 141/141/141
f 143/143/143 144/144/144 142/142/142
f 145/145/145 144/144/144 143/143/143
f 145/145/145 146/146/146 144/144/144
f 147/147/147 146/146/146 145/145/145
f 147/147/147 136/136/136 146/146/146
f 135/135/135 136/136/136 147/147/147
f 111/111/111 141/141/141 139/139/139
f 111/111/111 148/148/148 141/141/141
f 130/130/130 148/148/148 111/111/111
f 130/130/130 145/145/145 148/148/148
f 80/80/80 145/145/145 130/130/130
f 80/80/80 149/149/149 145/145/145
f 79/79/79 149/149/149 80/80/80
f 79/79/79 150/150/150 149/149/149
f 135/135/135 150/150/150 79/79/79
f 135/135/135 147/147/147 150/150/150
f 151/151/151 142/142/142 144/144/144
f 151/151/151 152/152/152 142/142/142
f 153/153/153 152/152/152 151/151/151
f 153/153/153 154/154/154 152/152/152
f 155/155/155 154/154/154 153/153/153
f 155/155/155 156/156/156 154/154/154
f 157/157/157 156/156/156 155/155/155
f 157/157/157 158/158/158 156/156/156
f 155/155/155 158/158/158 157/157/157
f 155/155/155 153/153/153 158/158/158
f 152/152/152 140/140/140 142/142/142
f 152/152/152 159/159/159 140/140/140
f 160/160/160 159/159/159 152/152/152
f 160/160/160 161/161/161 159/159/159
f 162/162/162 161/161/161 160/160/160
f 162/162/162 146/146/146 161/161/161
f 144/144/144 146/146/146 162/162/162
f 162/162/162 151/151/151 144/144/144
f 162/162/162 163/163/163 151/151/151
f 164/164/164 163/163/163 162/162/162
f 164/164/164 156/156/156 163/163/163
f 154/154/154 156/156/156 164/164/164
f 159/159/159 138/138/138 140/140/140
f 159/159/159 165/165/165 138/138/138
f 161/161/161 165/165/165 159/159/159
f 161/161/161 136/136/136 165/165/165
f 146/146/146 136/136/136 161/161/161
f 163/163/163 153/153/153 151/151/151
f 163/163/163 158/158/158 153/153/153
f 156/156/156 158/158/158 163/163/163
f 110/110/110 139/139/139 108/108/108
f 110/110/110 111/111/111 139/139/139
f 148/148/148 143/143/143 141/141/141
f 148/148/148 145/145/145 143/143/143
f 147/147/147 149/149/149 150/150/150
f 147/147/147 145/145/145 149/149/149
f 165/165/165 137/137/137 138/138/138
f 165/165/165 136/136/136 137/137/137
f 162/162/162 154/154/154 164/164/164
f 162/162/162 160/160/160 154/154/154
f 160/160/160 152/152/152 154/154/154

v 0.413164 4.414728 0.818401
v 1.142779 5.054010 0.576824
v 0.413469 5.053339 0.815349
v 1.142229 4.415461 0.579876
v -0.413435 5.053339 0.815349
v -1.142195 4.415461 0.579876
v -0.413130 4.414728 0.818401
v -1.142744 5.054010 0.576824

vt 0.000000 0.500000
vt 1.000000 1.000000
vt 0.000000 1.000000
vt 1.000000 0.500000
vt 1.000000 1.000000
vt 0.000000 0.500000
vt 1.000000 0.500000
vt 0.000000 1.000000

vn 0.311551 0.000000 0.950230
vn 0.311551 0.000000 0.950230
vn 0.311551 0.000000 0.950230
vn 0.311551 0.000000 0.950230
vn -0.311551 0.000000 0.950230
vn -0.311551 0.000000 0.950230
vn -0.311551 0.000000 0.950230
vn -0.311551 0.000000 0.950230

g polygon4
s 1
usemtl mat3
f 166/166/166 167/167/167 168/168/168
f 166/166/166 169/169/169 167/167/167
f 170/170/170 171/171/171 172/172/172
f 170/170/170 173/173/173 171/171/171

