mtllib WpnPikminY.mtl

v 0.588704 10.194512 -0.569181
v 0.008219 10.549212 -0.769490
v 0.823915 11.169799 -0.696280
v 0.008036 9.979743 0.053861
v 0.831703 10.547213 0.054041
v 0.630694 10.192957 0.634350
v 0.758482 11.167940 0.869539
v 0.008216 10.547411 0.877260
v -0.268055 12.581974 -0.501151
v -0.545888 12.581592 0.331978
v 0.010200 12.845079 0.055377
v -1.086240 11.172157 0.053985
v -0.742002 11.171889 -0.761709
v -0.815024 10.549618 0.054006
v -0.807434 11.170273 0.804145
v 0.008239 11.169374 1.148308
v 0.287119 12.580656 0.609539
v 0.564952 12.581003 -0.223348
v 1.102722 11.169122 0.054054
v 0.008243 11.171699 -1.040546
v -0.572918 10.194728 0.676507
v -0.615152 10.196043 -0.527059

vt 0.000000 1.000000
vt 0.000000 1.000000
vt 0.000000 1.000000
vt 0.000000 1.000000
vt 0.000000 1.000000
vt 0.000000 1.000000
vt 0.000000 1.000000
vt 0.000000 1.000000
vt 0.000000 1.000000
vt 0.000000 1.000000
vt 0.000000 1.000000
vt 0.000000 1.000000
vt 0.000000 1.000000
vt 0.000000 1.000000
vt 0.000000 1.000000
vt 0.000000 1.000000
vt 0.000000 1.000000
vt 0.000000 1.000000
vt 0.000000 1.000000
vt 0.000000 1.000000
vt 0.000000 1.000000
vt 0.000000 1.000000

vn 0.492759 -0.700830 -0.515776
vn -0.003194 -0.506042 -0.862503
vn 0.708852 -0.104596 -0.697559
vn -0.001241 -0.999999 -0.000977
vn 0.861985 -0.506925 -0.003077
vn 0.514382 -0.701508 0.493252
vn 0.697352 -0.105028 0.708991
vn 0.001871 -0.506845 0.862035
vn -0.294992 0.675440 -0.675841
vn -0.675612 0.675088 0.296317
vn 0.000997 0.999999 0.001167
vn -0.999575 -0.027755 -0.008924
vn -0.697435 -0.103826 -0.709087
vn -0.862569 -0.505935 0.002030
vn -0.709218 -0.104278 0.697235
vn -0.008896 -0.028592 0.999552
vn 0.296368 0.673725 0.676950
vn 0.677156 0.674112 -0.295014
vn 0.999541 -0.028973 0.008878
vn 0.008866 -0.028084 -0.999566
vn -0.494530 -0.700738 0.514205
vn -0.515589 -0.700082 -0.494018

g polygon0
s 1
usemtl mat2
f 1/1/1 2/2/2 3/3/3
f 1/1/1 4/4/4 2/2/2
f 5/5/5 4/4/4 1/1/1
f 5/5/5 6/6/6 4/4/4
f 7/7/7 6/6/6 5/5/5
f 7/7/7 8/8/8 6/6/6
f 9/9/9 10/10/10 11/11/11
f 9/9/9 12/12/12 10/10/10
f 13/13/13 12/12/12 9/9/9
f 13/13/13 14/14/14 12/12/12
f 15/15/15 12/12/12 14/14/14
f 15/15/15 10/10/10 12/12/12
f 16/16/16 10/10/10 15/15/15
f 16/16/16 17/17/17 10/10/10
f 17/17/17 18/18/18 11/11/11
f 17/17/17 19/19/19 18/18/18
f 7/7/7 19/19/19 17/17/17
f 7/7/7 5/5/5 19/19/19
f 3/3/3 19/19/19 5/5/5
f 3/3/3 18/18/18 19/19/19
f 20/20/20 18/18/18 3/3/3
f 20/20/20 9/9/9 18/18/18
f 8/8/8 4/4/4 6/6/6
f 8/8/8 21/21/21 4/4/4
f 15/15/15 21/21/21 8/8/8
f 15/15/15 14/14/14 21/21/21
f 14/14/14 4/4/4 21/21/21
f 14/14/14 22/22/22 4/4/4
f 13/13/13 22/22/22 14/14/14
f 13/13/13 2/2/2 22/22/22
f 20/20/20 13/13/13 9/9/9
f 20/20/20 2/2/2 13/13/13
f 3/3/3 2/2/2 20/20/20
f 8/8/8 16/16/16 15/15/15
f 8/8/8 7/7/7 16/16/16
f 11/11/11 10/10/10 17/17/17
f 18/18/18 9/9/9 11/11/11
f 16/16/16 7/7/7 17/17/17
f 5/5/5 1/1/1 3/3/3
f 4/4/4 22/22/22 2/2/2

v -0.425781 11.267578 0.125000
v -0.086914 10.924316 -0.512695
v -0.557617 10.923340 0.142090
v -0.062012 11.268066 -0.380859
v 0.009277 11.421875 0.054199
v 0.443848 11.268066 -0.017090
v 0.080078 11.267578 0.488770
v 0.570313 10.923828 -0.040527
v 0.099609 10.922852 0.614258
v 0.008301 10.050781 0.053223
v -0.557617 10.923340 0.142090
v -0.086914 10.924316 -0.512695
v 0.099609 10.922852 0.614258
v 0.570313 10.923828 -0.040527
v -0.607422 10.991211 -1.842285
v 0.008789 10.867188 0.053223
v 0.438477 10.575195 -1.270020
v -1.116699 10.575684 -0.764648
v 0.008789 10.867188 0.053223
v 1.621582 10.988770 -1.118164
v 0.438477 10.575195 -1.270020
v 1.399414 10.572754 0.053223
v 0.008789 10.867188 0.053223
v -0.607422 10.985840 1.949707
v 0.438477 10.571777 1.375977
v -1.116699 10.573730 0.870605
v 1.621582 10.985352 1.225098
v 0.008789 10.867188 0.053223
v 0.438477 10.571777 1.375977
v 1.399414 10.572754 0.053223
v -1.984863 10.989746 0.053711
v 0.008789 10.867188 0.053223
v -1.116699 10.575684 -0.764648
v -1.116699 10.573730 0.870605

vt 0.000000 1.000000
vt 0.000000 1.000000
vt 0.000000 1.000000
vt 0.000000 1.000000
vt 0.000000 1.000000
vt 0.000000 1.000000
vt 0.000000 1.000000
vt 0.000000 1.000000
vt 0.000000 1.000000
vt 0.000000 1.000000
vt 0.000000 1.000000
vt 0.000000 1.000000
vt 0.000000 1.000000
vt 0.000000 1.000000
vt 0.000000 1.000000
vt 0.000000 1.000000
vt 0.000000 1.000000
vt 0.000000 1.000000
vt 0.000000 1.000000
vt 0.000000 1.000000
vt 0.000000 1.000000
vt 0.000000 1.000000
vt 0.000000 1.000000
vt 0.000000 1.000000
vt 0.000000 1.000000
vt 0.000000 1.000000
vt 0.000000 1.000000
vt 0.000000 1.000000
vt 0.000000 1.000000
vt 0.000000 1.000000
vt 0.000000 1.000000
vt 0.000000 1.000000
vt 0.000000 1.000000
vt 0.000000 1.000000

vn -0.642636 0.758664 0.106994
vn -0.148922 0.363700 -0.919535
vn -0.920232 0.360170 0.153138
vn -0.104433 0.760144 -0.641307
vn -0.000244 0.999999 0.001038
vn 0.646061 0.756108 -0.104432
vn 0.105958 0.754642 0.647525
vn 0.924891 0.349436 -0.149906
vn 0.152035 0.345878 0.925880
vn 0.001038 -0.999999 0.000427
vn -0.824898 -0.548772 0.135621
vn -0.134152 -0.549179 -0.824867
vn 0.135500 -0.546213 0.826614
vn 0.826397 -0.546618 -0.135190
vn 0.019471 0.998067 0.059022
vn 0.019471 0.998067 0.059022
vn 0.401805 0.912989 -0.070742
vn -0.366207 0.913199 0.178770
vn -0.048400 0.998143 0.036986
vn -0.048400 0.998143 0.036986
vn -0.281619 0.913765 -0.292788
vn 0.193056 0.912547 0.360539
vn 0.019470 0.998222 -0.056335
vn 0.019470 0.998222 -0.056335
vn 0.401800 0.912794 0.073243
vn -0.366203 0.913676 -0.176327
vn -0.048401 0.998239 -0.034302
vn -0.048401 0.998239 -0.034302
vn -0.281615 0.912961 0.295287
vn 0.193058 0.913530 -0.358039
vn 0.061402 0.998112 0.001343
vn 0.061402 0.998112 0.001343
vn 0.056152 0.913686 -0.402522
vn 0.056151 0.912581 0.405022

g polygon1
s 1
usemtl mat2
f 23/23/23 24/24/24 25/25/25
f 23/23/23 26/26/26 24/24/24
f 27/27/27 26/26/26 23/23/23
f 27/27/27 28/28/28 26/26/26
f 29/29/29 28/28/28 27/27/27
f 29/29/29 30/30/30 28/28/28
f 31/31/31 30/30/30 29/29/29
f 32/32/32 33/33/33 34/34/34
f 32/32/32 35/35/35 33/33/33
f 36/36/36 35/35/35 32/32/32
f 37/37/37 38/38/38 39/39/39
f 37/37/37 40/40/40 38/38/38
f 41/41/41 42/42/42 43/43/43
f 41/41/41 44/44/44 42/42/42
f 45/45/45 46/46/46 47/47/47
f 45/45/45 48/48/48 46/46/46
f 49/49/49 50/50/50 51/51/51
f 49/49/49 52/52/52 50/50/50
f 53/53/53 54/54/54 55/55/55
f 53/53/53 56/56/56 54/54/54
f 23/23/23 29/29/29 27/27/27
f 23/23/23 25/25/25 29/29/29
f 30/30/30 26/26/26 28/28/28
f 30/30/30 24/24/24 26/26/26
f 32/32/32 34/34/34 36/36/36
f 25/25/25 31/31/31 29/29/29

v -0.027281 12.461998 0.201127
v 1.793234 12.282803 -0.208125
v -0.046717 14.951701 -0.152994
v -0.007357 9.972326 0.042180
v -1.861602 12.254315 -0.178550

vt 0.500000 0.437500
vt -0.300659 0.398621
vt 0.500000 1.000000
vt 0.500000 0.000000
vt -0.300659 0.398621

vn 0.008485 0.038647 0.999217
vn 0.223023 0.039347 0.974019
vn 0.007612 0.141062 0.989971
vn 0.009236 -0.063783 0.997921
vn -0.206486 0.036105 0.977783

g polygon2
s 1
usemtl mat4
f 57/57/57 58/58/58 59/59/59
f 57/57/57 60/60/60 58/58/58
f 61/61/61 60/60/60 57/57/57
f 57/57/57 59/59/59 61/61/61

v -0.368652 1.701660 0.742676
v 0.301270 3.214355 0.365723
v -0.302734 3.219727 0.370117
v 0.376953 1.698242 0.734375
v 0.434212 1.051885 0.554328
v 0.667610 0.828741 0.285285
v 0.411751 0.574835 0.446906
v 0.396614 0.056280 -0.022332
v 0.325325 0.557256 0.082648
v 0.373060 1.103392 -0.248535
v 0.671875 1.582031 0.162109
v 0.324219 1.367188 -0.407715
v 0.548353 2.437629 -0.066406
v 0.000000 2.952148 -0.351074
v 0.451172 2.996582 -0.064453
v -0.551862 0.048465 0.170539
v -0.391217 0.047977 -0.109735
v -0.389752 0.048465 0.222785
v -0.812116 0.049442 0.274543
v -0.379010 0.210087 0.018683
v -0.171979 0.048465 0.409797
v -0.535748 0.049442 0.519660
v 1.645106 2.661843 0.083361
v 1.926844 2.606179 0.181017
v 1.862879 2.720437 0.264025
v 2.018641 2.465554 0.117052
v 1.829188 2.742409 0.128282
v 2.107508 2.675515 0.308458
v 1.814540 2.847878 0.365587
v -1.864349 2.721901 0.270372
v -1.928314 2.607155 0.188341
v -1.647552 2.662819 0.089220
v -2.108978 2.676491 0.316271
v -1.831635 2.743385 0.134142
v -2.020599 2.465553 0.125841
v -1.816498 2.850319 0.370470
v 0.493665 2.615851 0.291504
v 1.169032 2.417702 0.010118
v 1.153407 2.395730 -0.298964
v 2.051844 2.676980 0.281603
v 1.190516 2.584206 -0.149550
v 0.243782 0.883917 0.220832
v -0.434186 1.051883 0.554328
v -0.667584 0.828739 0.285285
v -0.671875 1.580566 0.162598
v -0.373522 1.103392 -0.248535
v -0.324219 1.366211 -0.407715
v -0.454590 2.994629 -0.065918
v -0.496081 2.614875 0.291504
v -1.193451 2.583717 -0.145643
v -1.156342 2.394752 -0.294081
v -2.053314 2.678932 0.289415
v -1.170990 2.418190 0.015001
v -0.411725 0.574833 0.446906
v -0.396588 0.056278 -0.022332
v -0.325299 0.557255 0.082648
v -0.243639 0.884154 0.220703
v 0.551888 0.048467 0.170539
v 0.812142 0.049444 0.274543
v 0.379036 0.210088 0.018683
v 0.391243 0.047979 -0.109735
v 0.389778 0.048467 0.222785
v 0.172005 0.048467 0.409797
v -0.550280 2.436652 -0.065918
v 0.535774 0.049444 0.519660
v 1.160906 4.683222 0.007915
v 0.752215 3.914179 0.493755
v 0.991472 3.926874 -0.030659
v 0.866961 4.696894 0.620220
v 1.092547 5.202265 -0.082417
v 0.676531 5.456659 0.411235
v 0.807879 5.566034 -0.272847
v 0.309343 5.860468 -0.189839
v -0.000227 5.853632 -0.658101
v 0.227051 7.328613 -0.139160
v 0.000000 7.338867 -0.441406
v 0.130371 8.744629 -0.169922
v -0.116699 8.745117 -0.169434
v 0.008789 10.088379 0.053711
v 0.000000 8.731445 0.123535
v 0.527605 3.640741 -0.898823
v 1.023211 4.556269 -0.683979
v 0.574968 4.999628 -1.253315
v 0.000261 5.222284 -1.307026
v -0.811262 5.566523 -0.272847
v -0.313215 5.860468 -0.189839
v -0.676496 5.458124 0.413189
v -0.000715 5.942987 0.175396
v -0.000227 5.582148 0.625591
v 0.000750 4.409784 0.914165
v -0.000227 3.740839 0.708110
v -0.530500 3.641230 -0.898823
v -0.995832 3.927362 -0.030659
v -0.756575 3.913691 0.493755
v -1.165266 4.683710 0.007915
v -0.871321 4.697382 0.619731
v -1.063215 5.206659 -0.067280
v 0.000261 3.605585 -1.081929
v -0.000227 4.148066 -1.402241
v -0.559309 5.008417 -1.256245
v -0.000488 7.336914 0.149414
v -0.224609 7.329590 -0.139160
v -2.003156 4.709101 -0.535054
v -1.445539 5.346308 -0.117085
v -2.246809 5.444452 -0.412495
v -1.502180 4.178827 -0.341206
v 1.461199 5.338007 -0.145894
v 2.010515 4.697870 -0.577534
v 2.257097 5.429316 -0.406636
v 1.504168 4.169062 -0.382710
v -1.009504 4.569452 -0.690815

vt 0.000000 1.000000
vt 0.000000 1.000000
vt 0.000000 1.000000
vt 0.000000 1.000000
vt 0.000000 1.000000
vt 0.000000 1.000000
vt 0.000000 1.000000
vt 0.000000 1.000000
vt 0.000000 1.000000
vt 0.000000 1.000000
vt 0.000000 1.000000
vt 0.000000 1.000000
vt 0.000000 1.000000
vt 0.000000 1.000000
vt 0.000000 1.000000
vt 0.000000 1.000000
vt 0.000000 1.000000
vt 0.000000 1.000000
vt 0.000000 1.000000
vt 0.000000 1.000000
vt 0.000000 1.000000
vt 0.000000 1.000000
vt 0.000000 1.000000
vt 0.000000 1.000000
vt 0.000000 1.000000
vt 0.000000 1.000000
vt 0.000000 1.000000
vt 0.000000 1.000000
vt 0.000000 1.000000
vt 0.000000 1.000000
vt 0.000000 1.000000
vt 0.000000 1.000000
vt 0.000000 1.000000
vt 0.000000 1.000000
vt 0.000000 1.000000
vt 0.000000 1.000000
vt 0.000000 1.000000
vt 0.000000 1.000000
vt 0.000000 1.000000
vt 0.000000 1.000000
vt 0.000000 1.000000
vt 0.000000 1.000000
vt 0.000000 1.000000
vt 0.000000 1.000000
vt 0.000000 1.000000
vt 0.000000 1.000000
vt 0.000000 1.000000
vt 0.000000 1.000000
vt 0.000000 1.000000
vt 0.000000 1.000000
vt 0.000000 1.000000
vt 0.000000 1.000000
vt 0.000000 1.000000
vt 0.000000 1.000000
vt 0.000000 1.000000
vt 0.000000 1.000000
vt 0.000000 1.000000
vt 0.000000 1.000000
vt 0.000000 1.000000
vt 0.000000 1.000000
vt 0.000000 1.000000
vt 0.000000 1.000000
vt 0.000000 1.000000
vt 0.000000 1.000000
vt 0.000000 1.000000
vt 0.000000 1.000000
vt 0.000000 1.000000
vt 0.000000 1.000000
vt 0.000000 1.000000
vt 0.000000 1.000000
vt 0.000000 1.000000
vt 0.000000 1.000000
vt 0.000000 1.000000
vt 0.000000 1.000000
vt 0.000000 1.000000
vt 0.000000 1.000000
vt 0.000000 1.000000
vt 0.000000 1.000000
vt 0.000000 1.000000
vt 0.000000 1.000000
vt 0.000000 1.000000
vt 0.000000 1.000000
vt 0.000000 1.000000
vt 0.000000 1.000000
vt 0.000000 1.000000
vt 0.000000 1.000000
vt 0.000000 1.000000
vt 0.000000 1.000000
vt 0.000000 1.000000
vt 0.000000 1.000000
vt 0.000000 1.000000
vt 0.000000 1.000000
vt 0.000000 1.000000
vt 0.000000 1.000000
vt 0.000000 1.000000
vt 0.000000 1.000000
vt 0.000000 1.000000
vt 0.000000 1.000000
vt 0.000000 1.000000
vt 0.000000 1.000000
vt 0.000000 1.000000
vt 0.000000 1.000000
vt 0.000000 1.000000
vt 0.000000 1.000000
vt 0.000000 1.000000
vt 0.000000 1.000000
vt 0.000000 1.000000
vt 0.000000 1.000000
vt 0.000000 1.000000
vt 0.000000 1.000000
vt 0.000000 1.000000

vn -0.470389 0.019409 0.882246
vn 0.487782 -0.090452 0.868267
vn -0.561239 -0.155279 0.812957
vn 0.623052 0.034058 0.781439
vn 0.106324 -0.389955 0.914675
vn 0.977565 -0.198553 0.070314
vn -0.461185 -0.435611 0.773015
vn 0.310177 -0.855092 -0.415461
vn -0.751572 -0.336907 -0.567127
vn 0.288571 -0.530511 -0.797048
vn 0.994485 0.017578 -0.103391
vn 0.524921 -0.110844 -0.843902
vn 0.633847 -0.407103 -0.657651
vn 0.001648 -0.338933 -0.940809
vn 0.926031 -0.141663 -0.349855
vn -0.164670 -0.890244 0.424676
vn 0.131162 -0.904768 -0.405205
vn 0.161560 -0.880370 0.445922
vn -0.730099 -0.110717 0.674313
vn 0.105954 0.962923 0.248100
vn 0.931177 -0.131473 0.340036
vn 0.275879 0.387878 0.879455
vn -0.738039 -0.540224 0.404298
vn 0.225342 -0.705202 0.672243
vn 0.032715 -0.271122 0.961989
vn 0.881686 0.205574 -0.424699
vn 0.513782 0.689742 -0.510181
vn 0.758983 0.651072 0.007080
vn 0.330864 0.931070 0.153744
vn -0.027222 -0.264228 0.964076
vn -0.219970 -0.701046 0.678342
vn 0.741694 -0.535152 0.404355
vn -0.760762 0.649004 0.005860
vn -0.518124 0.684566 -0.512753
vn -0.884098 0.200074 -0.422304
vn -0.332400 0.931403 0.148317
vn 0.809259 0.192931 0.554867
vn 0.082274 -0.649770 0.755665
vn 0.164735 -0.349428 -0.922368
vn 0.614151 0.753009 -0.236212
vn 0.326532 0.937239 0.122312
vn -0.547488 -0.830754 0.100525
vn -0.108093 -0.540159 0.834592
vn -0.977553 -0.198306 0.071168
vn -0.994718 0.016419 -0.101321
vn -0.294797 -0.620295 -0.726862
vn -0.441837 -0.194032 -0.875861
vn -0.924601 -0.144345 -0.352531
vn -0.808639 0.192562 0.555898
vn -0.324765 0.938407 0.117980
vn -0.169800 -0.354065 -0.919677
vn -0.615358 0.750552 -0.240845
vn -0.079589 -0.645681 0.759449
vn 0.461115 -0.435602 0.773061
vn -0.310177 -0.855032 -0.415584
vn 0.751572 -0.336907 -0.567127
vn 0.754212 -0.643372 0.131287
vn 0.164670 -0.890244 0.424676
vn 0.730099 -0.110717 0.674313
vn -0.105954 0.962923 0.248100
vn -0.131162 -0.904768 -0.405205
vn -0.161560 -0.880370 0.445922
vn -0.931177 -0.131473 0.340036
vn -0.634160 -0.409061 -0.656133
vn -0.275879 0.387878 0.879455
vn 0.695191 -0.081116 0.714234
vn 0.656247 -0.349547 0.668698
vn 0.843547 -0.535022 0.046691
vn 0.648641 0.126835 0.750451
vn 0.746512 0.615349 0.253110
vn 0.570852 0.665577 0.480766
vn 0.654951 0.697492 -0.290764
vn 0.765073 0.640623 0.065307
vn 0.167785 0.657408 -0.734617
vn 0.994022 0.054077 0.094849
vn -0.206537 0.127743 -0.970064
vn 0.821669 0.150881 -0.549631
vn -0.815064 0.155090 -0.558228
vn -0.053224 0.698927 -0.713210
vn -0.011840 0.075926 0.997043
vn 0.599479 -0.494622 -0.629264
vn 0.410707 0.069397 -0.909122
vn 0.588995 0.177248 -0.788460
vn 0.001831 0.572695 -0.819766
vn -0.665282 0.690794 -0.283202
vn -0.821709 0.565485 -0.070861
vn -0.577099 0.661573 0.478830
vn 0.000427 0.605902 0.795540
vn 0.001221 0.473266 0.880919
vn 0.000916 -0.089540 0.995983
vn 0.000977 -0.388417 0.921483
vn -0.600279 -0.489806 -0.632262
vn -0.847728 -0.528144 0.049195
vn -0.654969 -0.349366 0.670044
vn -0.680834 -0.074645 0.728624
vn -0.650137 0.134642 0.747792
vn -0.753899 0.602533 0.261899
vn 0.000671 -0.635435 -0.772154
vn 0.000183 -0.231318 -0.972878
vn -0.587015 0.180413 -0.789217
vn -0.003357 0.018616 0.999821
vn -0.976123 0.048522 0.211728
vn -0.834654 -0.435424 0.337280
vn -0.173159 0.631480 0.755810
vn -0.184321 0.560104 -0.807656
vn -0.614692 -0.787790 0.039246
vn 0.191961 0.628069 0.754109
vn 0.834626 -0.441545 0.329297
vn 0.105650 0.559500 -0.822069
vn 0.597223 -0.802055 0.005737
vn -0.444218 0.057801 -0.894052

g polygon3
s 1
usemtl mat1
f 62/62/62 63/63/63 64/64/64
f 62/62/62 65/65/65 63/63/63
f 66/66/66 65/65/65 62/62/62
f 66/66/66 67/67/67 65/65/65
f 68/68/68 67/67/67 66/66/66
f 68/68/68 69/69/69 67/67/67
f 70/70/70 69/69/69 68/68/68
f 70/70/70 67/67/67 69/69/69
f 71/71/71 67/67/67 70/70/70
f 71/71/71 72/72/72 67/67/67
f 73/73/73 72/72/72 71/71/71
f 73/73/73 74/74/74 72/72/72
f 75/75/75 74/74/74 73/73/73
f 75/75/75 76/76/76 74/74/74
f 77/77/77 78/78/78 79/79/79
f 77/77/77 80/80/80 78/78/78
f 81/81/81 80/80/80 77/77/77
f 81/81/81 78/78/78 80/80/80
f 82/82/82 78/78/78 81/81/81
f 82/82/82 79/79/79 78/78/78
f 81/81/81 79/79/79 82/82/82
f 81/81/81 83/83/83 79/79/79
f 77/77/77 83/83/83 81/81/81
f 77/77/77 79/79/79 83/83/83
f 84/84/84 85/85/85 86/86/86
f 84/84/84 87/87/87 85/85/85
f 88/88/88 87/87/87 84/84/84
f 88/88/88 85/85/85 87/87/87
f 89/89/89 85/85/85 88/88/88
f 89/89/89 86/86/86 85/85/85
f 88/88/88 86/86/86 89/89/89
f 88/88/88 90/90/90 86/86/86
f 84/84/84 90/90/90 88/88/88
f 84/84/84 86/86/86 90/90/90
f 91/91/91 92/92/92 93/93/93
f 91/91/91 94/94/94 92/92/92
f 95/95/95 94/94/94 91/91/91
f 95/95/95 92/92/92 94/94/94
f 96/96/96 92/92/92 95/95/95
f 96/96/96 93/93/93 92/92/92
f 95/95/95 93/93/93 96/96/96
f 95/95/95 97/97/97 93/93/93
f 91/91/91 97/97/97 95/95/95
f 91/91/91 93/93/93 97/97/97
f 72/72/72 65/65/65 67/67/67
f 72/72/72 98/98/98 65/65/65
f 74/74/74 98/98/98 72/72/72
f 74/74/74 99/99/99 98/98/98
f 100/100/100 99/99/99 74/74/74
f 100/100/100 101/101/101 99/99/99
f 102/102/102 101/101/101 100/100/100
f 102/102/102 99/99/99 101/101/101
f 98/98/98 99/99/99 102/102/102
f 66/66/66 103/103/103 68/68/68
f 66/66/66 104/104/104 103/103/103
f 62/62/62 104/104/104 66/66/66
f 62/62/62 105/105/105 104/104/104
f 106/106/106 105/105/105 62/62/62
f 106/106/106 107/107/107 105/105/105
f 108/108/108 107/107/107 106/106/106
f 108/108/108 71/71/71 107/107/107
f 73/73/73 71/71/71 108/108/108
f 109/109/109 110/110/110 64/64/64
f 109/109/109 111/111/111 110/110/110
f 112/112/112 111/111/111 109/109/109
f 112/112/112 113/113/113 111/111/111
f 114/114/114 113/113/113 112/112/112
f 114/114/114 111/111/111 113/113/113
f 110/110/110 111/111/111 114/114/114
f 105/105/105 115/115/115 104/104/104
f 105/105/105 116/116/116 115/115/115
f 117/117/117 116/116/116 105/105/105
f 117/117/117 115/115/115 116/116/116
f 118/118/118 115/115/115 117/117/117
f 118/118/118 104/104/104 115/115/115
f 103/103/103 104/104/104 118/118/118
f 119/119/119 120/120/120 121/121/121
f 119/119/119 122/122/122 120/120/120
f 123/123/123 122/122/122 119/119/119
f 123/123/123 124/124/124 122/122/122
f 121/121/121 124/124/124 123/123/123
f 121/121/121 122/122/122 124/124/124
f 120/120/120 122/122/122 121/121/121
f 108/108/108 75/75/75 73/73/73
f 108/108/108 125/125/125 75/75/75
f 106/106/106 125/125/125 108/108/108
f 106/106/106 110/110/110 125/125/125
f 62/62/62 110/110/110 106/106/106
f 62/62/62 64/64/64 110/110/110
f 98/98/98 63/63/63 65/65/65
f 98/98/98 76/76/76 63/63/63
f 102/102/102 76/76/76 98/98/98
f 102/102/102 100/100/100 76/76/76
f 103/103/103 70/70/70 68/68/68
f 103/103/103 71/71/71 70/70/70
f 107/107/107 71/71/71 103/103/103
f 126/126/126 123/123/123 119/119/119
f 126/126/126 121/121/121 123/123/123
f 119/119/119 121/121/121 126/126/126
f 114/114/114 125/125/125 110/110/110
f 114/114/114 112/112/112 125/125/125
f 125/125/125 109/109/109 75/75/75
f 125/125/125 112/112/112 109/109/109
f 118/118/118 107/107/107 103/103/103
f 118/118/118 117/117/117 107/107/107
f 100/100/100 74/74/74 76/76/76
f 105/105/105 107/107/107 117/117/117
f 127/127/127 128/128/128 129/129/129
f 127/127/127 130/130/130 128/128/128
f 131/131/131 130/130/130 127/127/127
f 131/131/131 132/132/132 130/130/130
f 133/133/133 132/132/132 131/131/131
f 133/133/133 134/134/134 132/132/132
f 135/135/135 134/134/134 133/133/133
f 135/135/135 136/136/136 134/134/134
f 137/137/137 136/136/136 135/135/135
f 137/137/137 138/138/138 136/136/136
f 139/139/139 138/138/138 137/137/137
f 139/139/139 140/140/140 138/138/138
f 141/141/141 140/140/140 139/139/139
f 141/141/141 138/138/138 140/140/140
f 136/136/136 138/138/138 141/141/141
f 76/76/76 128/128/128 63/63/63
f 76/76/76 129/129/129 128/128/128
f 142/142/142 129/129/129 76/76/76
f 142/142/142 143/143/143 129/129/129
f 144/144/144 143/143/143 142/142/142
f 144/144/144 133/133/133 143/143/143
f 145/145/145 133/133/133 144/144/144
f 145/145/145 135/135/135 133/133/133
f 146/146/146 135/135/135 145/145/145
f 146/146/146 147/147/147 135/135/135
f 148/148/148 147/147/147 146/146/146
f 148/148/148 149/149/149 147/147/147
f 150/150/150 149/149/149 148/148/148
f 149/149/149 134/134/134 136/136/136
f 149/149/149 132/132/132 134/134/134
f 150/150/150 132/132/132 149/149/149
f 150/150/150 130/130/130 132/132/132
f 151/151/151 130/130/130 150/150/150
f 151/151/151 128/128/128 130/130/130
f 152/152/152 128/128/128 151/151/151
f 152/152/152 63/63/63 128/128/128
f 64/64/64 63/63/63 152/152/152
f 109/109/109 153/153/153 75/75/75
f 109/109/109 154/154/154 153/153/153
f 155/155/155 154/154/154 109/109/109
f 155/155/155 156/156/156 154/154/154
f 157/157/157 156/156/156 155/155/155
f 157/157/157 158/158/158 156/156/156
f 148/148/148 158/158/158 157/157/157
f 148/148/148 146/146/146 158/158/158
f 75/75/75 142/142/142 76/76/76
f 75/75/75 159/159/159 142/142/142
f 153/153/153 159/159/159 75/75/75
f 153/153/153 160/160/160 159/159/159
f 161/161/161 160/160/160 153/153/153
f 161/161/161 145/145/145 160/160/160
f 146/146/146 145/145/145 161/161/161
f 162/162/162 136/136/136 141/141/141
f 162/162/162 149/149/149 136/136/136
f 163/163/163 149/149/149 162/162/162
f 163/163/163 147/147/147 149/149/149
f 137/137/137 147/147/147 163/163/163
f 137/137/137 135/135/135 147/147/147
f 157/157/157 150/150/150 148/148/148
f 157/157/157 151/151/151 150/150/150
f 155/155/155 151/151/151 157/157/157
f 155/155/155 152/152/152 151/151/151
f 64/64/64 152/152/152 155/155/155
f 164/164/164 165/165/165 166/166/166
f 164/164/164 156/156/156 165/165/165
f 167/167/167 156/156/156 164/164/164
f 167/167/167 154/154/154 156/156/156
f 168/168/168 169/169/169 170/170/170
f 168/168/168 127/127/127 169/169/169
f 131/131/131 127/127/127 168/168/168
f 143/143/143 171/171/171 129/129/129
f 143/143/143 169/169/169 171/171/171
f 170/170/170 169/169/169 143/143/143
f 143/143/143 168/168/168 170/170/170
f 143/143/143 131/131/131 168/168/168
f 133/133/133 131/131/131 143/143/143
f 172/172/172 167/167/167 164/164/164
f 172/172/172 154/154/154 167/167/167
f 153/153/153 154/154/154 172/172/172
f 171/171/171 127/127/127 129/129/129
f 171/171/171 169/169/169 127/127/127
f 141/141/141 163/163/163 162/162/162
f 141/141/141 139/139/139 163/163/163
f 144/144/144 160/160/160 145/145/145
f 144/144/144 142/142/142 160/160/160
f 166/166/166 172/172/172 164/164/164
f 166/166/166 165/165/165 172/172/172
f 158/158/158 172/172/172 165/165/165
f 158/158/158 146/146/146 172/172/172
f 172/172/172 161/161/161 153/153/153
f 172/172/172 146/146/146 161/161/161
f 156/156/156 158/158/158 165/165/165
f 137/137/137 163/163/163 139/139/139
f 142/142/142 159/159/159 160/160/160
f 109/109/109 64/64/64 155/155/155

v 0.373003 4.357050 0.827434
v 1.123552 4.990290 0.585857
v 0.373308 4.989618 0.824382
v 1.123003 4.357721 0.588909
v -0.373274 4.989618 0.824382
v -1.123030 4.357721 0.588909
v -0.373030 4.357050 0.827434
v -1.123579 4.990290 0.585857

vt 0.000000 0.500000
vt 1.000000 1.000000
vt 0.000000 1.000000
vt 1.000000 0.500000
vt 1.000000 1.000000
vt 0.000000 0.500000
vt 1.000000 0.500000
vt 0.000000 1.000000

vn 0.297384 0.000000 0.954758
vn 0.297384 0.000000 0.954758
vn 0.297384 0.000000 0.954758
vn 0.297384 0.000000 0.954758
vn -0.297384 0.000000 0.954758
vn -0.297384 0.000000 0.954758
vn -0.297384 0.000000 0.954758
vn -0.297384 0.000000 0.954758

g polygon4
s 1
usemtl mat3
f 173/173/173 174/174/174 175/175/175
f 173/173/173 176/176/176 174/174/174
f 177/177/177 178/178/178 179/179/179
f 177/177/177 180/180/180 178/178/178

