mtllib WpnPikminW.mtl

v 0.479004 8.447754 -0.463379
v 0.006836 8.736328 -0.626465
v 0.670410 9.241211 -0.566895
v 0.006836 8.272949 0.043457
v 0.676758 8.734863 0.043457
v 0.513672 8.446289 0.516113
v 0.617188 9.239746 0.707031
v 0.006836 8.734863 0.713379
v -0.218262 10.390625 -0.407715
v -0.443848 10.390137 0.270508
v 0.008301 10.604492 0.044922
v -0.883789 9.243164 0.043457
v -0.603516 9.243164 -0.620117
v -0.663086 8.736816 0.043457
v -0.656738 9.241699 0.653809
v 0.233887 10.389648 0.496094
v 0.008301 10.604492 0.044922
v 0.233887 10.389648 0.496094
v 0.459961 10.389648 -0.181641
v 0.008301 10.604492 0.044922
v 0.897461 9.240723 0.043457
v 0.617188 9.239746 0.707031
v 0.676758 8.734863 0.043457
v 0.670410 9.241211 -0.566895
v 0.459961 10.389648 -0.181641
v 0.006836 9.243164 -0.847168
v -0.218262 10.390625 -0.407715
v -0.465820 8.447754 0.550293
v -0.656738 9.241699 0.653809
v -0.663086 8.736816 0.043457
v -0.500488 8.449219 -0.429199
v -0.603516 9.243164 -0.620117
v 0.006836 8.736328 -0.626465
v 0.006836 9.241211 0.934082
v 0.006836 8.734863 0.713379
v 0.008301 10.604492 0.044922

vt 0.000000 1.000000
vt 0.000000 1.000000
vt 0.000000 1.000000
vt 0.000000 1.000000
vt 0.000000 1.000000
vt 0.000000 1.000000
vt 0.000000 1.000000
vt 0.000000 1.000000
vt 0.000000 1.000000
vt 0.000000 1.000000
vt 0.000000 1.000000
vt 0.000000 1.000000
vt 0.000000 1.000000
vt 0.000000 1.000000
vt 0.000000 1.000000
vt 0.000000 1.000000
vt 0.000000 1.000000
vt 0.000000 1.000000
vt 0.000000 1.000000
vt 0.000000 1.000000
vt 0.000000 1.000000
vt 0.000000 1.000000
vt 0.000000 1.000000
vt 0.000000 1.000000
vt 0.000000 1.000000
vt 0.000000 1.000000
vt 0.000000 1.000000
vt 0.000000 1.000000
vt 0.000000 1.000000
vt 0.000000 1.000000
vt 0.000000 1.000000
vt 0.000000 1.000000
vt 0.000000 1.000000
vt 0.000000 1.000000
vt 0.000000 1.000000
vt 0.000000 1.000000

vn 0.492737 -0.700867 -0.515747
vn -0.015258 -0.558643 -0.829268
vn 0.678652 -0.253480 -0.689333
vn -0.001282 -0.999999 -0.000977
vn 0.828512 -0.559768 -0.015076
vn 0.514401 -0.701472 0.493283
vn 0.688770 -0.253902 0.679065
vn 0.013733 -0.559638 0.828623
vn -0.635326 0.568614 -0.522531
vn -0.675666 0.675056 0.296268
vn -0.487427 0.857972 -0.162171
vn -0.999576 -0.027710 -0.008911
vn -0.695568 -0.028199 -0.717907
vn -0.916640 -0.399176 -0.020752
vn -0.717893 -0.028870 0.695554
vn -0.258053 0.648795 0.715872
vn -0.162166 0.856972 0.489184
vn 0.636658 0.566285 0.523438
vn 0.716128 0.648073 0.259156
vn 0.489560 0.856501 0.163512
vn 0.999540 -0.028993 0.008850
vn 0.695567 -0.029725 0.717846
vn 0.916477 -0.399586 0.020019
vn 0.717829 -0.029053 -0.695613
vn 0.523504 0.567450 -0.635566
vn 0.008850 -0.027893 -0.999572
vn 0.259215 0.649471 -0.714839
vn -0.494568 -0.700744 0.514160
vn -0.679533 -0.253368 0.688505
vn -0.829360 -0.558542 0.013855
vn -0.515574 -0.700086 -0.494028
vn -0.689072 -0.252924 -0.679124
vn 0.019898 -0.399234 -0.916633
vn -0.008911 -0.028869 0.999543
vn -0.020874 -0.399527 0.916484
vn 0.163512 0.857476 -0.487850

g polygon0
s 1
usemtl mat2
f 1/1/1 2/2/2 3/3/3
f 1/1/1 4/4/4 2/2/2
f 5/5/5 4/4/4 1/1/1
f 5/5/5 6/6/6 4/4/4
f 7/7/7 6/6/6 5/5/5
f 7/7/7 8/8/8 6/6/6
f 9/9/9 10/10/10 11/11/11
f 9/9/9 12/12/12 10/10/10
f 13/13/13 12/12/12 9/9/9
f 13/13/13 14/14/14 12/12/12
f 15/15/15 12/12/12 14/14/14
f 15/15/15 10/10/10 12/12/12
f 16/16/16 10/10/10 15/15/15
f 16/16/16 17/17/17 10/10/10
f 18/18/18 19/19/19 20/20/20
f 18/18/18 21/21/21 19/19/19
f 22/22/22 21/21/21 18/18/18
f 22/22/22 23/23/23 21/21/21
f 24/24/24 21/21/21 23/23/23
f 24/24/24 25/25/25 21/21/21
f 26/26/26 25/25/25 24/24/24
f 26/26/26 27/27/27 25/25/25
f 8/8/8 4/4/4 6/6/6
f 8/8/8 28/28/28 4/4/4
f 29/29/29 28/28/28 8/8/8
f 29/29/29 30/30/30 28/28/28
f 30/30/30 4/4/4 28/28/28
f 30/30/30 31/31/31 4/4/4
f 32/32/32 31/31/31 30/30/30
f 32/32/32 2/2/2 31/31/31
f 26/26/26 13/13/13 9/9/9
f 26/26/26 33/33/33 13/13/13
f 24/24/24 33/33/33 26/26/26
f 34/34/34 22/22/22 18/18/18
f 34/34/34 35/35/35 22/22/22
f 15/15/15 35/35/35 34/34/34
f 25/25/25 27/27/27 36/36/36
f 15/15/15 34/34/34 16/16/16
f 5/5/5 1/1/1 3/3/3
f 4/4/4 31/31/31 2/2/2

v -0.346191 9.320801 0.102051
v -0.070801 9.041504 -0.416992
v -0.453613 9.041016 0.115723
v -0.050293 9.321289 -0.309570
v 0.007324 9.446289 0.044434
v 0.361328 9.321289 -0.013672
v 0.065430 9.320801 0.397949
v 0.463867 9.041016 -0.032715
v 0.081055 9.040527 0.500000
v 0.006836 8.331055 0.043457
v -0.453613 9.041016 0.115723
v -0.070801 9.041504 -0.416992
v 0.081055 9.040527 0.500000
v 0.463867 9.041016 -0.032715
v -0.494141 9.096191 -1.498535
v 0.007324 8.995117 0.044434
v 0.356934 8.757813 -1.032227
v -0.908691 8.757813 -0.621094
v 0.007324 8.995117 0.044434
v 1.319824 9.093750 -0.909180
v 0.356934 8.757813 -1.032227
v 1.138672 8.755859 0.043945
v 0.007324 8.995117 0.044434
v -0.494141 9.091797 1.587402
v 0.356934 8.754883 1.120605
v -0.908691 8.756348 0.709473
v 1.319824 9.091309 0.998047
v 0.007324 8.995117 0.044434
v 0.356934 8.754883 1.120605
v 1.138672 8.755859 0.043945
v -1.614746 9.094727 0.044434
v 0.007324 8.995117 0.044434
v -0.908691 8.757813 -0.621094
v -0.908691 8.756348 0.709473

vt 0.000000 1.000000
vt 0.000000 1.000000
vt 0.000000 1.000000
vt 0.000000 1.000000
vt 0.000000 1.000000
vt 0.000000 1.000000
vt 0.000000 1.000000
vt 0.000000 1.000000
vt 0.000000 1.000000
vt 0.000000 1.000000
vt 0.000000 1.000000
vt 0.000000 1.000000
vt 0.000000 1.000000
vt 0.000000 1.000000
vt 0.000000 1.000000
vt 0.000000 1.000000
vt 0.000000 1.000000
vt 0.000000 1.000000
vt 0.000000 1.000000
vt 0.000000 1.000000
vt 0.000000 1.000000
vt 0.000000 1.000000
vt 0.000000 1.000000
vt 0.000000 1.000000
vt 0.000000 1.000000
vt 0.000000 1.000000
vt 0.000000 1.000000
vt 0.000000 1.000000
vt 0.000000 1.000000
vt 0.000000 1.000000
vt 0.000000 1.000000
vt 0.000000 1.000000
vt 0.000000 1.000000
vt 0.000000 1.000000

vn -0.642636 0.758664 0.106994
vn -0.148922 0.363700 -0.919535
vn -0.920232 0.360170 0.153138
vn -0.104433 0.760144 -0.641307
vn -0.000244 0.999999 0.001038
vn 0.646061 0.756108 -0.104432
vn 0.105958 0.754642 0.647525
vn 0.924891 0.349436 -0.149906
vn 0.152035 0.345878 0.925880
vn 0.001038 -0.999999 0.000427
vn -0.824898 -0.548772 0.135621
vn -0.134152 -0.549179 -0.824867
vn 0.135500 -0.546213 0.826614
vn 0.826397 -0.546618 -0.135190
vn 0.019471 0.998067 0.059022
vn 0.019471 0.998067 0.059022
vn 0.401805 0.912989 -0.070742
vn -0.366207 0.913199 0.178770
vn -0.048400 0.998143 0.036986
vn -0.048400 0.998143 0.036986
vn -0.281619 0.913765 -0.292788
vn 0.193056 0.912547 0.360539
vn 0.019470 0.998222 -0.056335
vn 0.019470 0.998222 -0.056335
vn 0.401800 0.912794 0.073243
vn -0.366203 0.913676 -0.176327
vn -0.048401 0.998239 -0.034302
vn -0.048401 0.998239 -0.034302
vn -0.281615 0.912961 0.295287
vn 0.193058 0.913530 -0.358039
vn 0.061402 0.998112 0.001343
vn 0.061402 0.998112 0.001343
vn 0.056152 0.913686 -0.402522
vn 0.056151 0.912581 0.405022

g polygon1
s 1
usemtl mat2
f 37/37/37 38/38/38 39/39/39
f 37/37/37 40/40/40 38/38/38
f 41/41/41 40/40/40 37/37/37
f 41/41/41 42/42/42 40/40/40
f 43/43/43 42/42/42 41/41/41
f 43/43/43 44/44/44 42/42/42
f 45/45/45 44/44/44 43/43/43
f 46/46/46 47/47/47 48/48/48
f 46/46/46 49/49/49 47/47/47
f 50/50/50 49/49/49 46/46/46
f 51/51/51 52/52/52 53/53/53
f 51/51/51 54/54/54 52/52/52
f 55/55/55 56/56/56 57/57/57
f 55/55/55 58/58/58 56/56/56
f 59/59/59 60/60/60 61/61/61
f 59/59/59 62/62/62 60/60/60
f 63/63/63 64/64/64 65/65/65
f 63/63/63 66/66/66 64/64/64
f 67/67/67 68/68/68 69/69/69
f 67/67/67 70/70/70 68/68/68
f 37/37/37 43/43/43 41/41/41
f 37/37/37 39/39/39 43/43/43
f 44/44/44 40/40/40 42/42/42
f 44/44/44 38/38/38 40/40/40
f 46/46/46 48/48/48 50/50/50
f 39/39/39 45/45/45 43/43/43

v -0.021973 10.286621 0.164551
v 1.458496 10.141113 -0.168457
v -0.037598 12.311523 -0.124023
v -0.005859 8.262207 0.035156
v -1.514160 10.118164 -0.144531

vt 0.500000 0.437500
vt -0.180481 0.434875
vt 0.500000 0.986084
vt 0.500000 -0.004456
vt -0.180481 0.434875

vn 0.008484 0.038636 0.999217
vn 0.223027 0.039307 0.974019
vn 0.007629 0.141050 0.989973
vn 0.009216 -0.063782 0.997921
vn -0.206482 0.036133 0.977783

g polygon2
s 1
usemtl mat4
f 71/71/71 72/72/72 73/73/73
f 71/71/71 74/74/74 72/72/72
f 75/75/75 74/74/74 71/71/71
f 71/71/71 73/73/73 75/75/75

v -0.357189 0.865695 0.456120
v -0.338635 0.473117 0.367741
v -0.200451 0.728000 0.181706
v -0.549572 0.682101 0.234928
v -0.553223 1.301270 0.134277
v -0.307606 0.908520 -0.204590
v -0.267090 1.125000 -0.335938
v 0.307140 0.908520 -0.204590
v 0.267090 1.125488 -0.335938
v 0.553223 1.302734 0.133789
v 0.451671 2.007093 -0.054688
v 0.406749 2.153577 0.240234
v 0.962801 1.990553 0.008428
v 0.980379 2.127760 -0.122919
v 1.689363 2.203932 0.232061
v 0.949617 1.972487 -0.246455
v -0.303711 1.401367 0.611328
v 0.248047 2.646973 0.301270
v -0.249023 2.650879 0.304688
v 0.310547 1.398438 0.604492
v 0.357210 0.865697 0.456119
v 0.549593 0.682103 0.234927
v 0.267855 0.458470 0.067935
v 0.200472 0.728002 0.181705
v 0.338656 0.473119 0.367740
v -0.267834 0.458468 0.067936
v -0.326427 0.046359 -0.018490
v -0.454357 0.040011 0.140202
v -0.322033 0.039523 -0.090267
v -0.320568 0.040011 0.183659
v -0.668713 0.040500 0.226139
v -0.311779 0.172824 0.015202
v -0.141369 0.040011 0.337467
v -0.441174 0.040500 0.427799
v 1.354402 2.191725 0.068975
v 1.586336 2.145827 0.149053
v 1.533602 2.240065 0.217413
v 1.662019 2.030104 0.096319
v 1.506258 2.258132 0.105596
v 1.735262 2.202956 0.254034
v 1.494051 2.344557 0.300909
v -1.535416 2.241041 0.222295
v -1.588150 2.146802 0.154913
v -1.356705 2.192701 0.073370
v -1.736587 2.203931 0.260381
v -1.508072 2.258619 0.110479
v -1.663345 2.030103 0.103643
v -1.495376 2.346998 0.305303
v -0.453114 2.006116 -0.054199
v 0.000000 2.430664 -0.289063
v -0.374023 2.465820 -0.054199
v -0.951919 1.971509 -0.242060
v -0.982681 2.127271 -0.119990
v -1.690689 2.205884 0.238409
v -0.964126 1.991041 0.012334
v 0.454378 0.040013 0.140201
v 0.668734 0.040502 0.226138
v 0.311800 0.172826 0.015201
v 0.322054 0.039525 -0.090268
v 0.320589 0.040013 0.183658
v 0.141390 0.040013 0.337466
v -0.408192 2.153089 0.240234
v 0.371094 2.467285 -0.052734
v 0.326449 0.046361 -0.018491
v 0.441195 0.040502 0.427798
v -0.436481 2.997925 -0.740313
v -0.820270 3.233765 -0.025469
v -0.623004 3.222535 0.406172
v -0.717243 3.867554 0.510664
v 0.001996 3.765015 0.782636
v 0.001507 4.162476 0.775312
v 0.713910 3.867554 0.510664
v 0.000042 4.596558 0.515058
v 0.557171 4.492554 0.338789
v -0.000446 4.893433 0.144453
v 0.254925 4.825074 -0.156328
v 0.187012 6.034180 -0.114746
v 0.000042 4.819703 -0.541582
v 0.000000 6.042480 -0.363281
v -0.257770 4.825562 -0.156328
v -0.185059 6.035156 -0.114746
v 0.000000 6.041016 0.123047
v 0.000000 7.188965 0.101563
v 0.107422 7.200195 -0.139648
v 0.007324 8.306641 0.043945
v -0.096191 7.200684 -0.139648
v 0.000531 3.205445 0.678633
v 0.619183 3.222535 0.406660
v 0.816449 3.233277 -0.025469
v 0.434124 2.997925 -0.740313
v 0.899457 3.803589 -0.278399
v 0.473187 4.116578 -1.031817
v 0.899457 4.283570 -0.067461
v 0.665082 4.582886 -0.224688
v 0.000042 2.968628 -0.890703
v 0.000042 3.415406 -1.154375
v -0.460407 4.123902 -1.034258
v 0.000531 4.300171 -1.076250
v -0.667926 4.583375 -0.224688
v -0.556598 4.494019 0.340254
v -0.875446 4.286988 -0.055742
v -0.895465 3.809449 -0.280840

vt 0.000000 1.000000
vt 0.000000 1.000000
vt 0.000000 1.000000
vt 0.000000 1.000000
vt 0.000000 1.000000
vt 0.000000 1.000000
vt 0.000000 1.000000
vt 0.000000 1.000000
vt 0.000000 1.000000
vt 0.000000 1.000000
vt 0.000000 1.000000
vt 0.000000 1.000000
vt 0.000000 1.000000
vt 0.000000 1.000000
vt 0.000000 1.000000
vt 0.000000 1.000000
vt 0.000000 1.000000
vt 0.000000 1.000000
vt 0.000000 1.000000
vt 0.000000 1.000000
vt 0.000000 1.000000
vt 0.000000 1.000000
vt 0.000000 1.000000
vt 0.000000 1.000000
vt 0.000000 1.000000
vt 0.000000 1.000000
vt 0.000000 1.000000
vt 0.000000 1.000000
vt 0.000000 1.000000
vt 0.000000 1.000000
vt 0.000000 1.000000
vt 0.000000 1.000000
vt 0.000000 1.000000
vt 0.000000 1.000000
vt 0.000000 1.000000
vt 0.000000 1.000000
vt 0.000000 1.000000
vt 0.000000 1.000000
vt 0.000000 1.000000
vt 0.000000 1.000000
vt 0.000000 1.000000
vt 0.000000 1.000000
vt 0.000000 1.000000
vt 0.000000 1.000000
vt 0.000000 1.000000
vt 0.000000 1.000000
vt 0.000000 1.000000
vt 0.000000 1.000000
vt 0.000000 1.000000
vt 0.000000 1.000000
vt 0.000000 1.000000
vt 0.000000 1.000000
vt 0.000000 1.000000
vt 0.000000 1.000000
vt 0.000000 1.000000
vt 0.000000 1.000000
vt 0.000000 1.000000
vt 0.000000 1.000000
vt 0.000000 1.000000
vt 0.000000 1.000000
vt 0.000000 1.000000
vt 0.000000 1.000000
vt 0.000000 1.000000
vt 0.000000 1.000000
vt 0.000000 1.000000
vt 0.000000 1.000000
vt 0.000000 1.000000
vt 0.000000 1.000000
vt 0.000000 1.000000
vt 0.000000 1.000000
vt 0.000000 1.000000
vt 0.000000 1.000000
vt 0.000000 1.000000
vt 0.000000 1.000000
vt 0.000000 1.000000
vt 0.000000 1.000000
vt 0.000000 1.000000
vt 0.000000 1.000000
vt 0.000000 1.000000
vt 0.000000 1.000000
vt 0.000000 1.000000
vt 0.000000 1.000000
vt 0.000000 1.000000
vt 0.000000 1.000000
vt 0.000000 1.000000
vt 0.000000 1.000000
vt 0.000000 1.000000
vt 0.000000 1.000000
vt 0.000000 1.000000
vt 0.000000 1.000000
vt 0.000000 1.000000
vt 0.000000 1.000000
vt 0.000000 1.000000
vt 0.000000 1.000000
vt 0.000000 1.000000
vt 0.000000 1.000000
vt 0.000000 1.000000
vt 0.000000 1.000000
vt 0.000000 1.000000
vt 0.000000 1.000000
vt 0.000000 1.000000
vt 0.000000 1.000000

vn -0.295290 -0.458499 0.838202
vn 0.461115 -0.435602 0.773061
vn 0.754212 -0.643372 0.131287
vn -0.979021 -0.197941 -0.048341
vn -0.999851 0.010864 0.013427
vn -0.294797 -0.620295 -0.726862
vn -0.441837 -0.194032 -0.875861
vn 0.288571 -0.530511 -0.797048
vn 0.524921 -0.110844 -0.843902
vn 0.999869 0.011352 0.011536
vn 0.633847 -0.407103 -0.657651
vn 0.809259 0.192931 0.554867
vn 0.082274 -0.649770 0.755665
vn 0.326532 0.937239 0.122312
vn 0.614151 0.753009 -0.236212
vn 0.164735 -0.349428 -0.922368
vn -0.426635 0.026001 0.904050
vn 0.496633 -0.097471 0.862470
vn -0.570681 -0.163392 0.804752
vn 0.601852 0.046019 0.797281
vn 0.285831 -0.320866 0.902965
vn 0.979012 -0.198000 -0.048279
vn -0.751572 -0.336907 -0.567127
vn -0.547488 -0.830754 0.100525
vn -0.461185 -0.435611 0.773015
vn 0.751572 -0.336907 -0.567127
vn -0.310177 -0.855032 -0.415584
vn -0.164670 -0.890244 0.424676
vn 0.131162 -0.904768 -0.405205
vn 0.161560 -0.880370 0.445922
vn -0.730099 -0.110717 0.674313
vn 0.105954 0.962923 0.248100
vn 0.931177 -0.131473 0.340036
vn 0.275879 0.387878 0.879455
vn -0.738039 -0.540224 0.404298
vn 0.225342 -0.705202 0.672243
vn 0.032715 -0.271122 0.961989
vn 0.881686 0.205574 -0.424699
vn 0.513782 0.689742 -0.510181
vn 0.758984 0.651072 0.007019
vn 0.330864 0.931070 0.153744
vn -0.027222 -0.264228 0.964076
vn -0.219970 -0.701046 0.678342
vn 0.741694 -0.535152 0.404355
vn -0.760762 0.649004 0.005860
vn -0.518124 0.684566 -0.512753
vn -0.884098 0.200074 -0.422304
vn -0.332400 0.931403 0.148317
vn -0.634160 -0.409061 -0.656133
vn 0.001648 -0.338933 -0.940809
vn -0.924601 -0.144345 -0.352531
vn -0.169800 -0.354065 -0.919677
vn -0.324765 0.938407 0.117980
vn -0.615358 0.750552 -0.240845
vn -0.079589 -0.645681 0.759449
vn 0.164670 -0.890244 0.424676
vn 0.730099 -0.110717 0.674313
vn -0.105954 0.962923 0.248100
vn -0.131162 -0.904768 -0.405205
vn -0.161560 -0.880370 0.445922
vn -0.931177 -0.131473 0.340036
vn -0.808639 0.192562 0.555898
vn 0.926031 -0.141663 -0.349855
vn 0.310177 -0.855092 -0.415461
vn -0.275879 0.387878 0.879455
vn -0.627810 -0.473634 -0.617678
vn -0.946712 -0.315123 0.066589
vn -0.626295 -0.350593 0.696304
vn -0.729811 0.091005 0.677564
vn 0.001526 -0.126528 0.991962
vn 0.001831 0.268613 0.963247
vn 0.726989 0.084289 0.681456
vn 0.001648 0.562870 0.826544
vn 0.570852 0.665577 0.480766
vn 0.000427 0.605902 0.795540
vn 0.765073 0.640623 0.065307
vn 0.994022 0.054077 0.094849
vn 0.167785 0.657408 -0.734617
vn -0.206537 0.127743 -0.970064
vn -0.821709 0.565485 -0.070861
vn -0.976123 0.048522 0.211728
vn -0.003357 0.018616 0.999821
vn -0.011840 0.075926 0.997043
vn 0.821669 0.150881 -0.549631
vn -0.053224 0.698927 -0.713210
vn -0.815064 0.155090 -0.558228
vn 0.001160 -0.365004 0.931005
vn 0.628188 -0.350838 0.694473
vn 0.945023 -0.319341 0.070375
vn 0.628050 -0.477355 -0.614561
vn 0.978138 -0.090453 -0.187254
vn 0.676453 0.201538 -0.708374
vn 0.940207 0.339424 0.028321
vn 0.606929 0.753230 -0.253538
vn 0.000671 -0.635435 -0.772154
vn 0.000183 -0.231318 -0.972878
vn -0.680220 0.203242 -0.704268
vn 0.001831 0.572695 -0.819766
vn -0.619697 0.743051 -0.252688
vn -0.577099 0.661573 0.478830
vn -0.941999 0.334588 0.026245
vn -0.979187 -0.065918 -0.191956

g polygon3
s 1
usemtl mat1
f 76/76/76 77/77/77 78/78/78
f 76/76/76 79/79/79 77/77/77
f 80/80/80 79/79/79 76/76/76
f 80/80/80 81/81/81 79/79/79
f 82/82/82 81/81/81 80/80/80
f 82/82/82 83/83/83 81/81/81
f 84/84/84 83/83/83 82/82/82
f 84/84/84 85/85/85 83/83/83
f 86/86/86 85/85/85 84/84/84
f 86/86/86 87/87/87 85/85/85
f 88/88/88 87/87/87 86/86/86
f 88/88/88 89/89/89 87/87/87
f 90/90/90 89/89/89 88/88/88
f 90/90/90 91/91/91 89/89/89
f 88/88/88 91/91/91 90/90/90
f 88/88/88 86/86/86 91/91/91
f 92/92/92 93/93/93 94/94/94
f 92/92/92 95/95/95 93/93/93
f 96/96/96 95/95/95 92/92/92
f 96/96/96 85/85/85 95/95/95
f 97/97/97 85/85/85 96/96/96
f 97/97/97 83/83/83 85/85/85
f 98/98/98 83/83/83 97/97/97
f 98/98/98 99/99/99 83/83/83
f 100/100/100 99/99/99 98/98/98
f 100/100/100 96/96/96 99/99/99
f 97/97/97 96/96/96 100/100/100
f 76/76/76 96/96/96 92/92/92
f 76/76/76 99/99/99 96/96/96
f 78/78/78 99/99/99 76/76/76
f 78/78/78 81/81/81 99/99/99
f 101/101/101 81/81/81 78/78/78
f 101/101/101 79/79/79 81/81/81
f 102/102/102 79/79/79 101/101/101
f 102/102/102 77/77/77 79/79/79
f 101/101/101 77/77/77 102/102/102
f 101/101/101 78/78/78 77/77/77
f 103/103/103 104/104/104 105/105/105
f 103/103/103 106/106/106 104/104/104
f 107/107/107 106/106/106 103/103/103
f 107/107/107 104/104/104 106/106/106
f 108/108/108 104/104/104 107/107/107
f 108/108/108 105/105/105 104/104/104
f 107/107/107 105/105/105 108/108/108
f 107/107/107 109/109/109 105/105/105
f 103/103/103 109/109/109 107/107/107
f 103/103/103 105/105/105 109/109/109
f 110/110/110 111/111/111 112/112/112
f 110/110/110 113/113/113 111/111/111
f 114/114/114 113/113/113 110/110/110
f 114/114/114 111/111/111 113/113/113
f 115/115/115 111/111/111 114/114/114
f 115/115/115 112/112/112 111/111/111
f 114/114/114 112/112/112 115/115/115
f 114/114/114 116/116/116 112/112/112
f 110/110/110 116/116/116 114/114/114
f 110/110/110 112/112/112 116/116/116
f 117/117/117 118/118/118 119/119/119
f 117/117/117 120/120/120 118/118/118
f 121/121/121 120/120/120 117/117/117
f 121/121/121 118/118/118 120/120/120
f 122/122/122 118/118/118 121/121/121
f 122/122/122 119/119/119 118/118/118
f 121/121/121 119/119/119 122/122/122
f 121/121/121 123/123/123 119/119/119
f 117/117/117 123/123/123 121/121/121
f 117/117/117 119/119/119 123/123/123
f 124/124/124 125/125/125 82/82/82
f 124/124/124 126/126/126 125/125/125
f 127/127/127 126/126/126 124/124/124
f 127/127/127 128/128/128 126/126/126
f 129/129/129 128/128/128 127/127/127
f 129/129/129 130/130/130 128/128/128
f 127/127/127 130/130/130 129/129/129
f 127/127/127 124/124/124 130/130/130
f 131/131/131 132/132/132 133/133/133
f 131/131/131 134/134/134 132/132/132
f 135/135/135 134/134/134 131/131/131
f 135/135/135 136/136/136 134/134/134
f 133/133/133 136/136/136 135/135/135
f 133/133/133 134/134/134 136/136/136
f 132/132/132 134/134/134 133/133/133
f 92/92/92 80/80/80 76/76/76
f 92/92/92 137/137/137 80/80/80
f 94/94/94 137/137/137 92/92/92
f 94/94/94 126/126/126 137/137/137
f 86/86/86 138/138/138 91/91/91
f 86/86/86 125/125/125 138/138/138
f 84/84/84 125/125/125 86/86/86
f 84/84/84 82/82/82 125/125/125
f 139/139/139 98/98/98 97/97/97
f 139/139/139 100/100/100 98/98/98
f 97/97/97 100/100/100 139/139/139
f 87/87/87 95/95/95 85/85/85
f 87/87/87 93/93/93 95/95/95
f 138/138/138 93/93/93 87/87/87
f 137/137/137 130/130/130 124/124/124
f 137/137/137 128/128/128 130/130/130
f 126/126/126 128/128/128 137/137/137
f 140/140/140 135/135/135 131/131/131
f 140/140/140 133/133/133 135/135/135
f 131/131/131 133/133/133 140/140/140
f 89/89/89 138/138/138 87/87/87
f 89/89/89 91/91/91 138/138/138
f 80/80/80 124/124/124 82/82/82
f 80/80/80 137/137/137 124/124/124
f 83/83/83 99/99/99 81/81/81
f 126/126/126 141/141/141 125/125/125
f 126/126/126 142/142/142 141/141/141
f 143/143/143 142/142/142 126/126/126
f 143/143/143 144/144/144 142/142/142
f 145/145/145 144/144/144 143/143/143
f 145/145/145 146/146/146 144/144/144
f 147/147/147 146/146/146 145/145/145
f 147/147/147 148/148/148 146/146/146
f 149/149/149 148/148/148 147/147/147
f 149/149/149 150/150/150 148/148/148
f 151/151/151 150/150/150 149/149/149
f 151/151/151 152/152/152 150/150/150
f 153/153/153 152/152/152 151/151/151
f 153/153/153 154/154/154 152/152/152
f 155/155/155 154/154/154 153/153/153
f 155/155/155 156/156/156 154/154/154
f 150/150/150 156/156/156 155/155/155
f 150/150/150 157/157/157 156/156/156
f 152/152/152 157/157/157 150/150/150
f 152/152/152 158/158/158 157/157/157
f 159/159/159 158/158/158 152/152/152
f 159/159/159 160/160/160 158/158/158
f 161/161/161 160/160/160 159/159/159
f 161/161/161 158/158/158 160/160/160
f 156/156/156 158/158/158 161/161/161
f 156/156/156 157/157/157 158/158/158
f 94/94/94 143/143/143 126/126/126
f 94/94/94 162/162/162 143/143/143
f 93/93/93 162/162/162 94/94/94
f 93/93/93 163/163/163 162/162/162
f 138/138/138 163/163/163 93/93/93
f 138/138/138 164/164/164 163/163/163
f 165/165/165 164/164/164 138/138/138
f 165/165/165 166/166/166 164/164/164
f 167/167/167 166/166/166 165/165/165
f 167/167/167 168/168/168 166/166/166
f 169/169/169 168/168/168 167/167/167
f 169/169/169 149/149/149 168/168/168
f 151/151/151 149/149/149 169/169/169
f 125/125/125 165/165/165 138/138/138
f 125/125/125 170/170/170 165/165/165
f 141/141/141 170/170/170 125/125/125
f 141/141/141 171/171/171 170/170/170
f 172/172/172 171/171/171 141/141/141
f 172/172/172 173/173/173 171/171/171
f 174/174/174 173/173/173 172/172/172
f 174/174/174 153/153/153 173/173/173
f 155/155/155 153/153/153 174/174/174
f 174/174/174 175/175/175 155/155/155
f 174/174/174 176/176/176 175/175/175
f 172/172/172 176/176/176 174/174/174
f 172/172/172 177/177/177 176/176/176
f 141/141/141 177/177/177 172/172/172
f 141/141/141 142/142/142 177/177/177
f 169/169/169 153/153/153 151/151/151
f 169/169/169 173/173/173 153/153/153
f 167/167/167 173/173/173 169/169/169
f 167/167/167 171/171/171 173/173/173
f 165/165/165 171/171/171 167/167/167
f 165/165/165 170/170/170 171/171/171
f 148/148/148 144/144/144 146/146/146
f 148/148/148 175/175/175 144/144/144
f 150/150/150 175/175/175 148/148/148
f 150/150/150 155/155/155 175/175/175
f 147/147/147 168/168/168 149/149/149
f 147/147/147 166/166/166 168/168/168
f 164/164/164 166/166/166 147/147/147
f 161/161/161 154/154/154 156/156/156
f 161/161/161 159/159/159 154/154/154
f 176/176/176 144/144/144 175/175/175
f 176/176/176 177/177/177 144/144/144
f 147/147/147 163/163/163 164/164/164
f 147/147/147 145/145/145 163/163/163
f 162/162/162 145/145/145 143/143/143
f 162/162/162 163/163/163 145/145/145
f 152/152/152 154/154/154 159/159/159
f 144/144/144 177/177/177 142/142/142

v 0.341473 3.442688 0.669294
v 1.154706 4.290589 0.439741
v 0.341778 4.290040 0.666792
v 1.154156 3.443299 0.442243
v -0.341754 4.290040 0.666792
v -1.154193 3.443299 0.442243
v -0.341510 3.442688 0.669294
v -1.154743 4.290589 0.439741

vt 0.000000 0.500000
vt 1.000000 1.000000
vt 0.000000 1.000000
vt 1.000000 0.500000
vt 1.000000 1.000000
vt 0.000000 0.500000
vt 1.000000 0.500000
vt 0.000000 1.000000

vn 0.264433 0.000000 0.964404
vn 0.264433 0.000000 0.964404
vn 0.264433 0.000000 0.964404
vn 0.264433 0.000000 0.964404
vn -0.264433 0.000000 0.964404
vn -0.264433 0.000000 0.964404
vn -0.264433 0.000000 0.964404
vn -0.264433 0.000000 0.964404

g polygon4
s 1
usemtl mat3
f 178/178/178 179/179/179 180/180/180
f 178/178/178 181/181/181 179/179/179
f 182/182/182 183/183/183 184/184/184
f 182/182/182 185/185/185 183/183/183

